<svg xmlns="http://www.w3.org/2000/svg" viewBox="0 0 595.2 595.2"><defs><style>.cls-1{fill:#d91b1b;}</style></defs><title>Asset 6</title><g id="Layer_2" data-name="Layer 2"><g id="Layer_1_Image" data-name="Layer 1 Image"><path class="cls-1" d="M595.2,92.16q-15.68,15.69-31.34,31.38-36.71,36.7-73.42,73.4L436.19,251.2l-75.25,75.25L281.43,406,204,483.4l-94.07,94.05c-5.36,5.36-10.74,10.71-16.08,16.09-.47.47-1.24.8-1.22,1.66H0V503.52c.93,0,1.34-.81,1.89-1.35q67.65-67.62,135.29-135.28l166-166L470.8,33.26q15.76-15.78,31.55-31.52c.56-.57,1.1-1.16,1.65-1.74h91.2Z"/></g><g id="Layer_1_copy_Image" data-name="Layer 1 copy Image"><path class="cls-1" d="M92.16,0c3.42,3.91,7.23,7.44,10.9,11.11q61.51,61.56,123.06,123.07,60.18,60.18,120.35,120.35l142,142.06,106,105.93c.21.22.35.54.73.52V595.2H503.52c-.17-.67-.73-1-1.18-1.46L348.25,439.63,199.9,291.31,58.18,149.58Q30.12,121.53,2.05,93.47c-.56-.56-.93-1.56-2-1.31V0Z"/></g></g></svg>