<?xml version="1.0" encoding="UTF-8" standalone="no"?>
<svg
   xmlns:dc="http://purl.org/dc/elements/1.1/"
   xmlns:cc="http://creativecommons.org/ns#"
   xmlns:rdf="http://www.w3.org/1999/02/22-rdf-syntax-ns#"
   xmlns:svg="http://www.w3.org/2000/svg"
   xmlns="http://www.w3.org/2000/svg"
   viewBox="0 0 1866.6667 1306.6667"
   height="1306.6667"
   width="1866.6667"
   xml:space="preserve"
   id="svg2"
   version="1.1"><metadata
     id="metadata8"><rdf:RDF><cc:Work
         rdf:about=""><dc:format>image/svg+xml</dc:format><dc:type
           rdf:resource="http://purl.org/dc/dcmitype/StillImage" /></cc:Work></rdf:RDF></metadata><defs
     id="defs6"><clipPath
       id="clipPath36"
       clipPathUnits="userSpaceOnUse"><path
         id="path34"
         d="M 0,0 H 1400 V 980 H 0 Z" /></clipPath></defs><g
     transform="matrix(1.3333333,0,0,-1.3333333,0,1306.6667)"
     id="g10"><path
       id="path12"
       style="fill:#ffffff;fill-opacity:1;fill-rule:nonzero;stroke:none"
       d="M 0,0 H 1400 V 980 H 0 Z" /><g
       transform="translate(822.2706,683.0001)"
       id="g14"><path
         id="path16"
         style="fill:#292728;fill-opacity:1;fill-rule:nonzero;stroke:none"
         d="m 0,0 577.73,-447.465 v 154.828 L 52.5,0 Z" /></g><g
       transform="translate(846.0612,683.0001)"
       id="g18"><path
         id="path20"
         style="fill:#231f20;fill-opacity:1;fill-rule:nonzero;stroke:none"
         d="m 0,0 553.939,-355.544 v 61.6 L 19.084,0 Z" /></g><g
       transform="translate(864.7281,683.0001)"
       id="g22"><path
         id="path24"
         style="fill:#333132;fill-opacity:1;fill-rule:nonzero;stroke:none"
         d="m 0,0 535.272,-314.431 v 60.075 L 19.084,0 Z" /></g><path
       id="path26"
       style="fill:#2d2a2b;fill-opacity:1;fill-rule:nonzero;stroke:none"
       d="M 864.728,683 H 883.77 V 842.493 H 864.728 Z" /><path
       id="path28"
       style="fill:#292728;fill-opacity:1;fill-rule:nonzero;stroke:none"
       d="M 871,683 H 523.5 V 842.493 H 871 Z" /><g
       id="g30"><g
         clip-path="url(#clipPath36)"
         id="g32"><g
           transform="translate(678.466,711.0027)"
           id="g38"><path
             id="path40"
             style="fill:#231f20;fill-opacity:1;fill-rule:nonzero;stroke:none"
             d="m 0,0 c 0,8.665 -8.605,24.652 -9.419,33.257 -0.089,1.225 -0.268,3.278 -0.268,4.906 0,0.145 0.008,0.304 0.02,0.469 0.005,0.077 0.014,0.159 0.022,0.24 0.563,5.856 7.053,22.592 -5.18,23.529 h -0.978 -1.762 -0.977 c -0.356,-0.028 -0.694,-0.07 -1.018,-0.124 0.002,0 0.005,-10e-4 0.007,-0.002 -10.845,-1.776 -4.716,-17.716 -4.169,-23.403 0.008,-0.081 0.016,-0.163 0.022,-0.24 0.012,-0.165 0.02,-0.324 0.02,-0.469 0,-1.628 -0.153,-3.683 -0.268,-4.906 C -24.762,24.652 -33.367,8.665 -33.367,0 c 0,-18.257 6.628,-29.827 6.628,-29.827 h 4.998 3.199 0.977 1.762 0.978 8.197 c 0,0 7.047,11.575 6.628,29.827" /></g><g
           transform="translate(634.7314,711.0027)"
           id="g42"><path
             id="path44"
             style="fill:#231f20;fill-opacity:1;fill-rule:nonzero;stroke:none"
             d="m 0,0 c 0,8.665 -8.605,24.652 -9.419,33.257 -0.089,1.225 -0.268,3.278 -0.268,4.906 0,0.145 0.008,0.304 0.02,0.469 0.005,0.077 0.014,0.159 0.022,0.24 0.563,5.856 7.053,22.592 -5.18,23.529 h -0.978 -1.762 -0.977 c -0.356,-0.028 -0.694,-0.07 -1.018,-0.124 0.002,0 0.005,-10e-4 0.007,-0.002 -10.845,-1.776 -4.716,-17.716 -4.169,-23.403 0.008,-0.081 0.016,-0.163 0.022,-0.24 0.012,-0.165 0.02,-0.324 0.02,-0.469 0,-1.628 -0.153,-3.683 -0.268,-4.906 C -24.762,24.652 -33.367,8.665 -33.367,0 c 0,-18.257 6.628,-29.827 6.628,-29.827 h 4.998 3.199 0.977 1.762 0.978 8.197 c 0,0 7.047,11.575 6.628,29.827" /></g><g
           transform="translate(720.9576,711.0027)"
           id="g46"><path
             id="path48"
             style="fill:#231f20;fill-opacity:1;fill-rule:nonzero;stroke:none"
             d="m 0,0 c 0,8.665 -8.605,24.652 -9.419,33.257 -0.089,1.225 -0.268,3.278 -0.268,4.906 0,0.145 0.008,0.304 0.02,0.469 0.005,0.077 0.014,0.159 0.022,0.24 0.563,5.856 7.053,22.592 -5.18,23.529 h -0.978 -1.762 -0.977 c -0.356,-0.028 -0.694,-0.07 -1.018,-0.124 0.002,0 0.005,-10e-4 0.007,-0.002 -10.845,-1.776 -4.716,-17.716 -4.169,-23.403 0.008,-0.081 0.016,-0.163 0.022,-0.24 0.012,-0.165 0.02,-0.324 0.02,-0.469 0,-1.628 -0.153,-3.683 -0.268,-4.906 C -24.762,24.652 -33.367,8.665 -33.367,0 c 0,-18.257 6.628,-29.827 6.628,-29.827 h 4.998 3.199 0.977 1.762 0.978 8.197 c 0,0 7.047,11.575 6.628,29.827" /></g><g
           transform="translate(765.9576,711.0027)"
           id="g50"><path
             id="path52"
             style="fill:#231f20;fill-opacity:1;fill-rule:nonzero;stroke:none"
             d="m 0,0 c 0,8.665 -8.605,24.652 -9.419,33.257 -0.089,1.225 -0.268,3.278 -0.268,4.906 0,0.145 0.008,0.304 0.02,0.469 0.005,0.077 0.014,0.159 0.022,0.24 0.563,5.856 7.053,22.592 -5.18,23.529 h -0.978 -1.762 -0.977 c -0.356,-0.028 -0.694,-0.07 -1.018,-0.124 0.002,0 0.005,-10e-4 0.007,-0.002 -10.845,-1.776 -4.716,-17.716 -4.169,-23.403 0.008,-0.081 0.016,-0.163 0.022,-0.24 0.012,-0.165 0.02,-0.324 0.02,-0.469 0,-1.628 -0.153,-3.683 -0.268,-4.906 C -24.762,24.652 -33.367,8.665 -33.367,0 c 0,-18.257 6.628,-29.827 6.628,-29.827 h 4.998 3.199 0.977 1.762 0.978 8.197 c 0,0 7.047,11.575 6.628,29.827" /></g><g
           transform="translate(799.1749,711.0027)"
           id="g54"><path
             id="path56"
             style="fill:#231f20;fill-opacity:1;fill-rule:nonzero;stroke:none"
             d="m 0,0 c 0,8.665 -8.605,24.652 -9.419,33.257 -0.089,1.225 -0.268,3.278 -0.268,4.906 0,0.145 0.008,0.304 0.02,0.469 0.005,0.077 0.014,0.159 0.022,0.24 0.563,5.856 7.053,22.592 -5.18,23.529 h -0.978 -1.762 -0.977 c -0.356,-0.028 -0.694,-0.07 -1.018,-0.124 0.002,0 0.005,-10e-4 0.007,-0.002 -10.845,-1.776 -4.716,-17.716 -4.169,-23.403 0.008,-0.081 0.016,-0.163 0.022,-0.24 0.012,-0.165 0.02,-0.324 0.02,-0.469 0,-1.628 -0.153,-3.683 -0.268,-4.906 C -24.762,24.652 -33.367,8.665 -33.367,0 c 0,-18.257 6.628,-29.827 6.628,-29.827 h 4.998 3.199 0.977 1.762 0.978 8.197 c 0,0 7.047,11.575 6.628,29.827" /></g><path
           id="path58"
           style="fill:#808285;fill-opacity:1;fill-rule:nonzero;stroke:none"
           d="M 1400,842.493 H 0 V 980 h 1400 z" /><path
           id="path60"
           style="fill:#939598;fill-opacity:1;fill-rule:nonzero;stroke:none"
           d="M 1400,842.493 H 0 v 36.252 h 1400 z" /><g
           transform="translate(1400,250.6477)"
           id="g62"><path
             id="path64"
             style="fill:#ffc776;fill-opacity:1;fill-rule:nonzero;stroke:none"
             d="m 0,0 -574.507,433.352 h -142.167 l -0.249,-1 h -108.57 L -1400,-1 v -250.648 h 716.674 v 1 H 0 Z" /></g><g
           transform="translate(1017.3672,539.2686)"
           id="g66"><path
             id="path68"
             style="fill:#e2a85a;fill-opacity:1;fill-rule:nonzero;stroke:none"
             d="m 0,0 -191.874,144.731 h -142.167 l -0.249,-1 H -442.86 L -624.791,6.501 c 67.091,-32.257 204.599,-64.77 307.424,-64.77 C -190.531,-58.269 -67.418,-30.06 0,0" /></g><g
           transform="translate(567.3084,138.2156)"
           id="g70"><path
             id="path72"
             style="fill:#e2a85a;fill-opacity:1;fill-rule:nonzero;stroke:none"
             d="m 0,0 c 0,-28.172 -41.867,-51.01 -93.512,-51.01 -51.645,0 -93.512,22.838 -93.512,51.01 0,28.172 41.867,51.01 93.512,51.01 C -41.867,51.01 0,28.172 0,0" /></g><g
           transform="translate(581.0673,683)"
           id="g74"><path
             id="path76"
             style="fill:#ad7131;fill-opacity:1;fill-rule:nonzero;stroke:none"
             d="m 0,0 -581.067,-507.457 v -2.679 L 3.067,0 Z" /></g><g
           transform="translate(595.8484,683)"
           id="g78"><path
             id="path80"
             style="fill:#ad7131;fill-opacity:1;fill-rule:nonzero;stroke:none"
             d="m 0,0 -595.848,-594.704 v -2.849 L 2.855,0 Z" /></g><g
           transform="translate(610.6212,683)"
           id="g82"><path
             id="path84"
             style="fill:#ad7131;fill-opacity:1;fill-rule:nonzero;stroke:none"
             d="m 0,0 -587.414,-684 h 2.659 L 2.659,0 Z" /></g><g
           transform="translate(625.3851,683)"
           id="g86"><path
             id="path88"
             style="fill:#ad7131;fill-opacity:1;fill-rule:nonzero;stroke:none"
             d="m 0,0 -489.512,-684 h 2.481 L 2.481,0 Z" /></g><g
           transform="translate(640.1384,683)"
           id="g90"><path
             id="path92"
             style="fill:#ad7131;fill-opacity:1;fill-rule:nonzero;stroke:none"
             d="m 0,0 -391.61,-684 h 2.325 L 2.325,0 Z" /></g><g
           transform="translate(654.8777,683)"
           id="g94"><path
             id="path96"
             style="fill:#ad7131;fill-opacity:1;fill-rule:nonzero;stroke:none"
             d="m 0,0 -293.707,-684 h 2.195 L 2.195,0 Z" /></g><g
           transform="translate(669.6008,683)"
           id="g98"><path
             id="path100"
             style="fill:#ad7131;fill-opacity:1;fill-rule:nonzero;stroke:none"
             d="m 0,0 -195.804,-684 h 2.098 L 2.099,0 Z" /></g><g
           transform="translate(586.4038,-0.9999)"
           id="g102"><path
             id="path104"
             style="fill:#ad7131;fill-opacity:1;fill-rule:nonzero;stroke:none"
             d="m 0,0 h 2.038 l 98.046,685 h -2.038 z" /></g><path
           id="path106"
           style="fill:#ad7131;fill-opacity:1;fill-rule:nonzero;stroke:none"
           d="m 698.991,-1 h 2.018 v 685 h -2.018 z" /><g
           transform="translate(713.5135,683.9999)"
           id="g108"><path
             id="path110"
             style="fill:#ad7131;fill-opacity:1;fill-rule:nonzero;stroke:none"
             d="m 0,0 97.901,-684 h 2.038 L 2.038,0 Z" /></g><g
           transform="translate(728.0139,683.9999)"
           id="g112"><path
             id="path114"
             style="fill:#ad7131;fill-opacity:1;fill-rule:nonzero;stroke:none"
             d="m 0,0 195.805,-684 h 2.098 L 2.099,0 Z" /></g><g
           transform="translate(742.4976,683.9999)"
           id="g116"><path
             id="path118"
             style="fill:#ad7131;fill-opacity:1;fill-rule:nonzero;stroke:none"
             d="m 0,0 293.706,-684 h 2.196 L 2.195,0 Z" /></g><g
           transform="translate(756.9655,683.9999)"
           id="g120"><path
             id="path122"
             style="fill:#ad7131;fill-opacity:1;fill-rule:nonzero;stroke:none"
             d="m 0,0 391.609,-684 h 2.324 L 2.324,0 Z" /></g><g
           transform="translate(771.4182,683.9999)"
           id="g124"><path
             id="path126"
             style="fill:#ad7131;fill-opacity:1;fill-rule:nonzero;stroke:none"
             d="m 0,0 489.512,-684 h 2.48 L 2.481,0 Z" /></g><g
           transform="translate(785.8605,683.9999)"
           id="g128"><path
             id="path130"
             style="fill:#ad7131;fill-opacity:1;fill-rule:nonzero;stroke:none"
             d="m 0,0 587.414,-684 h 2.66 L 2.66,0 Z" /></g><g
           transform="translate(800.2945,683.9999)"
           id="g132"><path
             id="path134"
             style="fill:#ad7131;fill-opacity:1;fill-rule:nonzero;stroke:none"
             d="m 0,0 599.706,-598.554 v 2.851 L 2.856,0 Z" /></g><g
           transform="translate(817.7868,683.9999)"
           id="g136"><path
             id="path138"
             style="fill:#ad7131;fill-opacity:1;fill-rule:nonzero;stroke:none"
             d="m 0,0 h -3.066 l 585.279,-511.135 v 2.677 z" /></g><path
           id="path140"
           style="fill:#292728;fill-opacity:1;fill-rule:nonzero;stroke:none"
           d="M 435.5,683 H 98 v 159.493 h 337.5 z" /><g
           transform="translate(319.2164,677.2295)"
           id="g142"><path
             id="path144"
             style="fill:#231f20;fill-opacity:1;fill-rule:nonzero;stroke:none"
             d="m 0,0 c 8.665,0 24.652,8.605 33.257,9.419 1.225,0.089 3.278,0.268 4.906,0.268 0.145,0 0.304,-0.008 0.469,-0.02 0.077,-0.005 0.159,-0.014 0.24,-0.022 5.856,-0.563 22.592,-7.053 23.529,5.18 v 0.978 1.762 0.977 c -0.028,0.356 -0.07,0.694 -0.124,1.018 0,-0.002 -10e-4,-0.005 -0.002,-0.007 -1.776,10.845 -17.716,4.716 -23.403,4.169 -0.081,-0.008 -0.163,-0.016 -0.24,-0.022 -0.165,-0.012 -0.324,-0.02 -0.469,-0.02 -1.628,0 -3.683,0.153 -4.906,0.268 C 24.652,24.762 8.665,33.367 0,33.367 c -18.257,0 -29.827,-6.628 -29.827,-6.628 V 21.741 18.542 17.565 15.803 14.825 6.628 c 0,0 11.575,-7.047 29.827,-6.628" /></g><g
           transform="translate(270.9048,711.0027)"
           id="g146"><path
             id="path148"
             style="fill:#231f20;fill-opacity:1;fill-rule:nonzero;stroke:none"
             d="m 0,0 c 0,8.665 -8.605,24.652 -9.419,33.257 -0.089,1.225 -0.268,3.278 -0.268,4.906 0,0.145 0.008,0.304 0.02,0.469 0.005,0.077 0.014,0.159 0.022,0.24 0.563,5.856 7.053,22.592 -5.18,23.529 h -0.978 -1.762 -0.977 c -0.356,-0.028 -0.694,-0.07 -1.018,-0.124 0.002,0 0.005,-10e-4 0.007,-0.002 -10.845,-1.776 -4.716,-17.716 -4.169,-23.403 0.008,-0.081 0.016,-0.163 0.022,-0.24 0.012,-0.165 0.02,-0.324 0.02,-0.469 0,-1.628 -0.153,-3.683 -0.268,-4.906 C -24.762,24.652 -33.367,8.665 -33.367,0 c 0,-18.257 6.628,-29.827 6.628,-29.827 h 4.998 3.199 0.977 1.762 0.978 8.197 c 0,0 7.047,11.575 6.628,29.827" /></g><g
           transform="translate(187.5891,711.0027)"
           id="g150"><path
             id="path152"
             style="fill:#231f20;fill-opacity:1;fill-rule:nonzero;stroke:none"
             d="m 0,0 c 0,8.665 -8.605,24.652 -9.419,33.257 -0.089,1.225 -0.268,3.278 -0.268,4.906 0,0.145 0.008,0.304 0.02,0.469 0.005,0.077 0.014,0.159 0.022,0.24 0.563,5.856 7.053,22.592 -5.18,23.529 h -0.978 -1.762 -0.977 c -0.356,-0.028 -0.694,-0.07 -1.018,-0.124 0.002,0 0.005,-10e-4 0.007,-0.002 -10.845,-1.776 -4.716,-17.716 -4.169,-23.403 0.008,-0.081 0.016,-0.163 0.022,-0.24 0.012,-0.165 0.02,-0.324 0.02,-0.469 0,-1.628 -0.153,-3.683 -0.268,-4.906 C -24.762,24.652 -33.367,8.665 -33.367,0 c 0,-18.257 6.628,-29.827 6.628,-29.827 h 4.998 3.199 0.977 1.762 0.978 8.197 c 0,0 7.047,11.575 6.628,29.827" /></g><g
           transform="translate(390.9971,711.0027)"
           id="g154"><path
             id="path156"
             style="fill:#231f20;fill-opacity:1;fill-rule:nonzero;stroke:none"
             d="m 0,0 c 0,8.665 -8.605,24.652 -9.419,33.257 -0.089,1.225 -0.268,3.278 -0.268,4.906 0,0.145 0.008,0.304 0.02,0.469 0.005,0.077 0.014,0.159 0.022,0.24 0.563,5.856 7.053,22.592 -5.18,23.529 h -0.978 -1.762 -0.977 c -0.356,-0.028 -0.694,-0.07 -1.018,-0.124 0.002,0 0.005,-10e-4 0.007,-0.002 -10.845,-1.776 -4.716,-17.716 -4.169,-23.403 0.008,-0.081 0.016,-0.163 0.022,-0.24 0.012,-0.165 0.02,-0.324 0.02,-0.469 0,-1.628 -0.153,-3.683 -0.268,-4.906 C -24.762,24.652 -33.367,8.665 -33.367,0 c 0,-18.257 6.628,-29.827 6.628,-29.827 h 4.998 3.199 0.977 1.762 0.978 8.197 c 0,0 7.047,11.575 6.628,29.827" /></g><g
           transform="translate(198.3131,705.6589)"
           id="g158"><path
             id="path160"
             style="fill:#231f20;fill-opacity:1;fill-rule:nonzero;stroke:none"
             d="m 0,0 c -8.665,0 -24.652,-8.605 -33.257,-9.419 -1.225,-0.089 -3.278,-0.268 -4.906,-0.268 -0.145,0 -0.304,0.008 -0.469,0.02 -0.077,0.005 -0.159,0.014 -0.24,0.022 -5.856,0.563 -22.592,7.053 -23.529,-5.18 v -0.978 -1.762 -0.977 c 0.028,-0.356 0.07,-0.694 0.124,-1.018 0,0.002 10e-4,0.005 0.002,0.007 1.776,-10.845 17.716,-4.716 23.403,-4.169 0.081,0.008 0.163,0.016 0.24,0.022 0.165,0.012 0.324,0.02 0.469,0.02 1.628,0 3.683,-0.153 4.906,-0.268 8.605,-0.814 24.592,-9.419 33.257,-9.419 18.257,0 29.827,6.628 29.827,6.628 v 4.998 3.199 0.977 1.762 0.978 8.197 C 29.827,-6.628 18.252,0.419 0,0" /></g><g
           transform="translate(-51.3369,453.4994)"
           id="g162"><path
             id="path164"
             style="fill:#ffc776;fill-opacity:1;fill-rule:nonzero;stroke:none"
             d="m 0,0 565.813,230.769 h -22.226 c -0.587,-0.76 -1.497,-1.285 -2.75,-1.285 H 0 Z" /></g><g
           transform="translate(16.4462,683)"
           id="g166"><path
             id="path168"
             style="fill:#333132;fill-opacity:1;fill-rule:nonzero;stroke:none"
             d="m 0,0 h -21.946 l -11,-10.5 z" /></g><g
           transform="translate(454.2498,683)"
           id="g170"><path
             id="path172"
             style="fill:#e2a85a;fill-opacity:1;fill-rule:nonzero;stroke:none"
             d="M 0,0 -159.5,-0.016 -327.172,0 h -108.571 l -54.37,-41.011 C -464.59,-78.812 -393.706,-98.5 -310.25,-98.5 -226.304,-98.5 -25.136,-38.148 0,0" /></g><g
           transform="translate(132.9601,635.2444)"
           id="g174"><path
             id="path176"
             style="fill:#e2a85a;fill-opacity:1;fill-rule:nonzero;stroke:none"
             d="m 0,0 c 0,-5.956 -8.852,-10.785 -19.771,-10.785 -10.92,0 -19.772,4.829 -19.772,10.785 0,5.956 8.852,10.785 19.772,10.785 C -8.852,10.785 0,5.956 0,0" /></g><g
           transform="translate(-51.3369,661.5992)"
           id="g178"><path
             id="path180"
             style="fill:#ad7131;fill-opacity:1;fill-rule:nonzero;stroke:none"
             d="m 0,0 105.268,21.385 h -3.067 L 0,0.623 Z" /></g><g
           transform="translate(-51.3369,654.981)"
           id="g182"><path
             id="path184"
             style="fill:#ad7131;fill-opacity:1;fill-rule:nonzero;stroke:none"
             d="m 0,0 133.84,28.003 h -2.856 L 0,0.597 Z" /></g><g
           transform="translate(-51.3369,647.2057)"
           id="g186"><path
             id="path188"
             style="fill:#ad7131;fill-opacity:1;fill-rule:nonzero;stroke:none"
             d="m 0,0 165.881,35.778 h -2.66 L 0,0.574 Z" /></g><g
           transform="translate(-51.3369,639.4617)"
           id="g190"><path
             id="path192"
             style="fill:#ad7131;fill-opacity:1;fill-rule:nonzero;stroke:none"
             d="m 0,0 195.556,43.522 h -2.481 L 0,0.552 Z" /></g><g
           transform="translate(-51.3369,630.4832)"
           id="g194"><path
             id="path196"
             style="fill:#ad7131;fill-opacity:1;fill-rule:nonzero;stroke:none"
             d="m 0,0 228.384,52.501 h -2.325 L 0,0.534 Z" /></g><g
           transform="translate(-51.3369,620.7108)"
           id="g198"><path
             id="path200"
             style="fill:#ad7131;fill-opacity:1;fill-rule:nonzero;stroke:none"
             d="m 0,0 261.982,62.273 h -2.195 L 0,0.522 Z" /></g><g
           transform="translate(-51.3369,612.1688)"
           id="g202"><path
             id="path204"
             style="fill:#ad7131;fill-opacity:1;fill-rule:nonzero;stroke:none"
             d="m 0,0 287.782,70.815 h -2.099 L 0,0.516 Z" /></g><g
           transform="translate(-51.3369,602.2071)"
           id="g206"><path
             id="path208"
             style="fill:#ad7131;fill-opacity:1;fill-rule:nonzero;stroke:none"
             d="m 0,0 316.703,80.777 h -2.038 L 0,0.52 Z" /></g><g
           transform="translate(-51.3369,569.4894)"
           id="g210"><path
             id="path212"
             style="fill:#ad7131;fill-opacity:1;fill-rule:nonzero;stroke:none"
             d="m 0,0 428.735,113.494 h -2.017 L 0,0.534 Z" /></g><g
           transform="translate(-51.3369,574.7225)"
           id="g214"><path
             id="path216"
             style="fill:#ad7131;fill-opacity:1;fill-rule:nonzero;stroke:none"
             d="m 0,0 408.967,108.261 h -2.018 L 0,0.534 Z" /></g><g
           transform="translate(-51.3369,580.5798)"
           id="g218"><path
             id="path220"
             style="fill:#ad7131;fill-opacity:1;fill-rule:nonzero;stroke:none"
             d="m 0,0 386.84,102.404 h -2.017 L 0,0.534 Z" /></g><g
           transform="translate(-51.3369,587.5671)"
           id="g222"><path
             id="path224"
             style="fill:#ad7131;fill-opacity:1;fill-rule:nonzero;stroke:none"
             d="m 0,0 360.445,95.417 h -2.017 L 0,0.534 Z" /></g><g
           transform="translate(-51.3369,593.1993)"
           id="g226"><path
             id="path228"
             style="fill:#ad7131;fill-opacity:1;fill-rule:nonzero;stroke:none"
             d="m 0,0 339.169,89.784 h -2.018 L 0,0.534 Z" /></g><g
           transform="translate(-51.3369,560.6816)"
           id="g230"><path
             id="path232"
             style="fill:#ad7131;fill-opacity:1;fill-rule:nonzero;stroke:none"
             d="m 0,0 444.502,122.302 h -2.038 L 0,0.561 Z" /></g><g
           transform="translate(-51.3369,549.5249)"
           id="g234"><path
             id="path236"
             style="fill:#ad7131;fill-opacity:1;fill-rule:nonzero;stroke:none"
             d="M 0,0 465.948,133.459 H 463.85 L 0,0.601 Z" /></g><g
           transform="translate(-51.3369,539.41)"
           id="g238"><path
             id="path240"
             style="fill:#ad7131;fill-opacity:1;fill-rule:nonzero;stroke:none"
             d="m 0,0 480.713,143.574 h -2.195 L 0,0.656 Z" /></g><g
           transform="translate(-51.3369,528.3868)"
           id="g242"><path
             id="path244"
             style="fill:#ad7131;fill-opacity:1;fill-rule:nonzero;stroke:none"
             d="m 0,0 495.493,154.597 h -2.324 L 0,0.725 Z" /></g><g
           transform="translate(-51.3369,516.3286)"
           id="g246"><path
             id="path248"
             style="fill:#ad7131;fill-opacity:1;fill-rule:nonzero;stroke:none"
             d="m 0,0 510.286,166.655 h -2.48 L 0,0.81 Z" /></g><g
           transform="translate(-51.3369,503.0837)"
           id="g250"><path
             id="path252"
             style="fill:#ad7131;fill-opacity:1;fill-rule:nonzero;stroke:none"
             d="m 0,0 525.092,179.9 h -2.66 L 0,0.911 Z" /></g><g
           transform="translate(-51.3369,488.4698)"
           id="g254"><path
             id="path256"
             style="fill:#ad7131;fill-opacity:1;fill-rule:nonzero;stroke:none"
             d="M 0,0 539.906,194.514 H 537.05 L 0,1.029 Z" /></g><g
           transform="translate(-51.3369,472.2643)"
           id="g258"><path
             id="path260"
             style="fill:#ad7131;fill-opacity:1;fill-rule:nonzero;stroke:none"
             d="m 0,0 558.107,212.004 h -3.066 L 0,1.165 Z" /></g><g
           transform="translate(-11,384.2233)"
           id="g262"><path
             id="path264"
             style="fill:#292728;fill-opacity:1;fill-rule:nonzero;stroke:none"
             d="m 0,0 v -157.223 l 588.75,456 h -52.5 z" /></g><g
           transform="translate(534.8745,683)"
           id="g266"><path
             id="path268"
             style="fill:#231f20;fill-opacity:1;fill-rule:nonzero;stroke:none"
             d="m 0,0 -545.875,-300 v -62.617 L 19.084,0 Z" /></g><g
           transform="translate(516.2078,683)"
           id="g270"><path
             id="path272"
             style="fill:#333132;fill-opacity:1;fill-rule:nonzero;stroke:none"
             d="m 0,0 -543.04,-267.588 v -62.617 L 19.084,0 Z" /></g><g
           transform="translate(608.6377,742.1838)"
           id="g274"><path
             id="path276"
             style="fill:#ffffff;fill-opacity:1;fill-rule:nonzero;stroke:none"
             d="m 0,0 c -0.116,1.223 -0.268,3.278 -0.268,4.906 0,5.07 7.627,23.26 -5.138,24.238 h -0.978 -1.762 -0.977 c -12.765,-0.978 -5.138,-19.168 -5.138,-24.238 0,-1.628 -0.153,-3.683 -0.268,-4.906 -0.815,-8.605 -9.419,-24.592 -9.419,-33.257 0,-18.257 6.628,-29.827 6.628,-29.827 h 8.197 0.977 1.762 0.978 8.197 c 0,0 6.628,11.57 6.628,29.827 C 9.419,-24.592 0.814,-8.605 0,0" /></g><g
           transform="translate(608.6377,742.1838)"
           id="g278"><path
             id="path280"
             style="fill:#dddcdb;fill-opacity:1;fill-rule:nonzero;stroke:none"
             d="m 0,0 c -0.089,1.225 -0.268,3.278 -0.268,4.906 0,5.07 7.627,23.26 -5.138,24.238 h -0.978 -1.762 -0.977 c -0.356,-0.028 -0.694,-0.07 -1.018,-0.124 14.913,-3.496 4.12,-19.185 4.12,-24.114 0,-1.628 0.152,-3.683 0.268,-4.906 0.814,-8.605 8.14,-21.626 8.14,-30.292 0,-21.803 -14.709,-32.792 -14.709,-32.792 H 2.791 c 0,0 7.048,11.575 6.628,29.827 C 9.206,-24.013 0.575,-7.954 0,0" /></g><g
           transform="translate(594.0502,741.6663)"
           id="g282"><path
             id="path284"
             style="fill:#e84646;fill-opacity:1;fill-rule:nonzero;stroke:none"
             d="m 0,0 h 14.646 c -0.022,0.175 -0.042,0.348 -0.058,0.518 -0.116,1.222 -0.269,3.278 -0.269,4.906 0,0.267 0.023,0.572 0.061,0.908 H 0.266 C 0.304,5.996 0.326,5.691 0.326,5.424 0.326,3.796 0.174,1.74 0.058,0.518 0.042,0.348 0.022,0.175 0,0" /></g><g
           transform="translate(608.3696,747.09)"
           id="g286"><path
             id="path288"
             style="fill:#d83d3d;fill-opacity:1;fill-rule:nonzero;stroke:none"
             d="M 0,0 C 0,0.072 0.002,0.147 0.005,0.224 0.007,0.266 0.009,0.309 0.012,0.352 0.014,0.385 0.015,0.419 0.018,0.453 0.022,0.513 0.027,0.574 0.033,0.636 0.034,0.652 0.036,0.667 0.037,0.683 0.044,0.757 0.052,0.831 0.06,0.908 H -5.66 C -5.719,0.576 -5.753,0.271 -5.753,0 c 0,-1.628 0.152,-3.683 0.268,-4.906 0.016,-0.171 0.036,-0.344 0.057,-0.518 H 0.317 C 0.297,-5.248 0.28,-5.075 0.268,-4.906 0.152,-3.683 0,-1.628 0,0" /></g><g
           transform="translate(648.0849,742.1838)"
           id="g290"><path
             id="path292"
             style="fill:#ffffff;fill-opacity:1;fill-rule:nonzero;stroke:none"
             d="m 0,0 c -0.116,1.223 -0.268,3.278 -0.268,4.906 0,5.07 7.627,23.26 -5.138,24.238 h -0.978 -1.762 -0.977 c -12.765,-0.978 -5.138,-19.168 -5.138,-24.238 0,-1.628 -0.153,-3.683 -0.268,-4.906 -0.814,-8.605 -9.419,-24.592 -9.419,-33.257 0,-18.257 6.628,-29.827 6.628,-29.827 h 8.197 0.977 1.762 0.978 8.197 c 0,0 6.628,11.57 6.628,29.827 C 9.419,-24.592 0.814,-8.605 0,0" /></g><g
           transform="translate(648.0849,742.1838)"
           id="g294"><path
             id="path296"
             style="fill:#dddcdb;fill-opacity:1;fill-rule:nonzero;stroke:none"
             d="m 0,0 c -0.089,1.225 -0.268,3.278 -0.268,4.906 0,5.07 7.627,23.26 -5.138,24.238 h -0.978 -1.762 -0.977 c -0.356,-0.028 -0.694,-0.07 -1.018,-0.124 14.913,-3.496 4.12,-19.185 4.12,-24.114 0,-1.628 0.152,-3.683 0.268,-4.906 0.814,-8.605 8.14,-21.626 8.14,-30.292 0,-21.803 -14.709,-32.792 -14.709,-32.792 H 2.791 c 0,0 7.048,11.575 6.628,29.827 C 9.206,-24.013 0.575,-7.954 0,0" /></g><g
           transform="translate(633.4974,741.6663)"
           id="g298"><path
             id="path300"
             style="fill:#e84646;fill-opacity:1;fill-rule:nonzero;stroke:none"
             d="m 0,0 h 14.646 c -0.022,0.175 -0.042,0.348 -0.058,0.518 -0.116,1.222 -0.269,3.278 -0.269,4.906 0,0.267 0.023,0.572 0.061,0.908 H 0.266 C 0.304,5.996 0.326,5.691 0.326,5.424 0.326,3.796 0.174,1.74 0.058,0.518 0.042,0.348 0.022,0.175 0,0" /></g><g
           transform="translate(647.8168,747.09)"
           id="g302"><path
             id="path304"
             style="fill:#d83d3d;fill-opacity:1;fill-rule:nonzero;stroke:none"
             d="M 0,0 C 0,0.072 0.002,0.147 0.005,0.224 0.007,0.266 0.009,0.309 0.012,0.352 0.014,0.385 0.015,0.419 0.018,0.453 0.022,0.513 0.027,0.574 0.033,0.636 0.034,0.652 0.036,0.667 0.037,0.683 0.044,0.757 0.052,0.831 0.06,0.908 H -5.66 C -5.719,0.576 -5.753,0.271 -5.753,0 c 0,-1.628 0.152,-3.683 0.268,-4.906 0.016,-0.171 0.036,-0.344 0.057,-0.518 H 0.317 C 0.297,-5.248 0.282,-5.074 0.268,-4.906 0.166,-3.682 0,-1.628 0,0" /></g><g
           transform="translate(687.5321,742.1838)"
           id="g306"><path
             id="path308"
             style="fill:#ffffff;fill-opacity:1;fill-rule:nonzero;stroke:none"
             d="m 0,0 c -0.116,1.223 -0.268,3.278 -0.268,4.906 0,5.07 7.627,23.26 -5.138,24.238 h -0.978 -1.762 -0.977 c -12.765,-0.978 -5.138,-19.168 -5.138,-24.238 0,-1.628 -0.153,-3.683 -0.268,-4.906 -0.814,-8.605 -9.419,-24.592 -9.419,-33.257 0,-18.257 6.628,-29.827 6.628,-29.827 h 8.197 0.977 1.762 0.978 8.197 c 0,0 6.628,11.57 6.628,29.827 C 9.419,-24.592 0.814,-8.605 0,0" /></g><g
           transform="translate(687.5321,742.1838)"
           id="g310"><path
             id="path312"
             style="fill:#dddcdb;fill-opacity:1;fill-rule:nonzero;stroke:none"
             d="m 0,0 c -0.089,1.225 -0.268,3.278 -0.268,4.906 0,5.07 7.627,23.26 -5.138,24.238 h -0.978 -1.762 -0.977 c -0.356,-0.028 -0.694,-0.07 -1.018,-0.124 14.913,-3.496 4.12,-19.185 4.12,-24.114 0,-1.628 0.152,-3.683 0.268,-4.906 0.814,-8.605 8.14,-21.626 8.14,-30.292 0,-21.803 -14.709,-32.792 -14.709,-32.792 H 2.791 c 0,0 7.048,11.575 6.628,29.827 C 9.207,-24.013 0.575,-7.954 0,0" /></g><g
           transform="translate(672.9446,741.6663)"
           id="g314"><path
             id="path316"
             style="fill:#e84646;fill-opacity:1;fill-rule:nonzero;stroke:none"
             d="m 0,0 h 14.646 c -0.022,0.175 -0.042,0.348 -0.058,0.518 -0.116,1.222 -0.269,3.278 -0.269,4.906 0,0.267 0.023,0.572 0.061,0.908 H 0.266 C 0.304,5.996 0.326,5.691 0.326,5.424 0.326,3.796 0.174,1.74 0.058,0.518 0.042,0.348 0.022,0.175 0,0" /></g><g
           transform="translate(687.264,747.09)"
           id="g318"><path
             id="path320"
             style="fill:#d83d3d;fill-opacity:1;fill-rule:nonzero;stroke:none"
             d="M 0,0 C 0,0.072 0.002,0.147 0.005,0.224 0.007,0.266 0.009,0.309 0.012,0.352 0.014,0.385 0.015,0.419 0.018,0.453 0.022,0.513 0.027,0.574 0.033,0.636 0.034,0.652 0.036,0.667 0.037,0.683 0.044,0.757 0.052,0.831 0.06,0.908 H -5.66 C -5.719,0.576 -5.753,0.271 -5.753,0 c 0,-1.628 0.152,-3.683 0.268,-4.906 0.016,-0.171 0.036,-0.344 0.057,-0.518 H 0.317 C 0.297,-5.248 0.282,-5.074 0.268,-4.906 0.166,-3.682 0,-1.628 0,0" /></g><g
           transform="translate(726.9794,742.1838)"
           id="g322"><path
             id="path324"
             style="fill:#ffffff;fill-opacity:1;fill-rule:nonzero;stroke:none"
             d="m 0,0 c -0.116,1.223 -0.268,3.278 -0.268,4.906 0,5.07 7.627,23.26 -5.138,24.238 h -0.978 -1.762 -0.977 c -12.766,-0.978 -5.138,-19.168 -5.138,-24.238 0,-1.628 -0.153,-3.683 -0.269,-4.906 -0.814,-8.605 -9.418,-24.592 -9.418,-33.257 0,-18.257 6.628,-29.827 6.628,-29.827 h 8.197 0.977 1.762 0.978 8.197 c 0,0 6.628,11.57 6.628,29.827 C 9.419,-24.592 0.814,-8.605 0,0" /></g><g
           transform="translate(726.9794,742.1838)"
           id="g326"><path
             id="path328"
             style="fill:#dddcdb;fill-opacity:1;fill-rule:nonzero;stroke:none"
             d="m 0,0 c -0.089,1.225 -0.268,3.278 -0.268,4.906 0,5.07 7.627,23.26 -5.138,24.238 h -0.978 -1.762 -0.977 c -0.356,-0.028 -0.694,-0.07 -1.018,-0.124 14.913,-3.496 4.12,-19.185 4.12,-24.114 0,-1.628 0.152,-3.683 0.268,-4.906 0.814,-8.605 8.14,-21.626 8.14,-30.292 0,-21.803 -14.709,-32.792 -14.709,-32.792 H 2.791 c 0,0 7.047,11.575 6.628,29.827 C 9.206,-24.013 0.575,-7.954 0,0" /></g><g
           transform="translate(712.3918,741.6663)"
           id="g330"><path
             id="path332"
             style="fill:#e84646;fill-opacity:1;fill-rule:nonzero;stroke:none"
             d="m 0,0 h 14.646 c -0.022,0.175 -0.042,0.348 -0.058,0.518 -0.116,1.222 -0.269,3.278 -0.269,4.906 0,0.267 0.023,0.572 0.061,0.908 H 0.266 C 0.304,5.996 0.326,5.691 0.326,5.424 0.326,3.796 0.174,1.74 0.058,0.518 0.042,0.348 0.022,0.175 0,0" /></g><g
           transform="translate(726.7112,747.09)"
           id="g334"><path
             id="path336"
             style="fill:#d83d3d;fill-opacity:1;fill-rule:nonzero;stroke:none"
             d="M 0,0 C 0,0.072 0.002,0.147 0.005,0.224 0.007,0.266 0.009,0.309 0.012,0.352 0.014,0.385 0.015,0.419 0.018,0.453 0.022,0.513 0.027,0.574 0.033,0.636 0.034,0.652 0.036,0.667 0.037,0.683 0.044,0.757 0.052,0.831 0.06,0.908 H -5.66 C -5.719,0.576 -5.753,0.271 -5.753,0 c 0,-1.628 0.152,-3.683 0.268,-4.906 0.016,-0.171 0.036,-0.344 0.057,-0.518 H 0.317 C 0.297,-5.248 0.282,-5.074 0.268,-4.906 0.166,-3.682 0,-1.628 0,0" /></g><g
           transform="translate(196.6137,742.1838)"
           id="g338"><path
             id="path340"
             style="fill:#ffffff;fill-opacity:1;fill-rule:nonzero;stroke:none"
             d="m 0,0 c -0.116,1.223 -0.268,3.278 -0.268,4.906 0,5.07 7.627,23.26 -5.138,24.238 h -0.978 -1.762 -0.977 c -12.766,-0.978 -5.138,-19.168 -5.138,-24.238 0,-1.628 -0.153,-3.683 -0.268,-4.906 -0.814,-8.605 -9.419,-24.592 -9.419,-33.257 0,-18.257 6.628,-29.827 6.628,-29.827 h 8.197 0.977 1.762 0.978 8.197 c 0,0 6.628,11.57 6.628,29.827 C 9.419,-24.592 0.814,-8.605 0,0" /></g><g
           transform="translate(196.6137,742.1838)"
           id="g342"><path
             id="path344"
             style="fill:#dddcdb;fill-opacity:1;fill-rule:nonzero;stroke:none"
             d="m 0,0 c -0.089,1.225 -0.268,3.278 -0.268,4.906 0,5.07 7.627,23.26 -5.138,24.238 h -0.978 -1.762 -0.977 c -0.356,-0.028 -0.694,-0.07 -1.018,-0.124 14.913,-3.496 4.12,-19.185 4.12,-24.114 0,-1.628 0.152,-3.683 0.268,-4.906 0.814,-8.605 8.14,-21.626 8.14,-30.292 0,-21.803 -14.709,-32.792 -14.709,-32.792 H 2.791 c 0,0 7.047,11.575 6.628,29.827 C 9.206,-24.013 0.575,-7.954 0,0" /></g><g
           transform="translate(182.0262,741.6663)"
           id="g346"><path
             id="path348"
             style="fill:#e84646;fill-opacity:1;fill-rule:nonzero;stroke:none"
             d="m 0,0 h 14.646 c -0.022,0.175 -0.042,0.348 -0.058,0.518 -0.116,1.222 -0.269,3.278 -0.269,4.906 0,0.267 0.023,0.572 0.061,0.908 H 0.266 C 0.304,5.996 0.326,5.691 0.326,5.424 0.326,3.796 0.174,1.74 0.058,0.518 0.042,0.348 0.022,0.175 0,0" /></g><g
           transform="translate(196.3456,747.09)"
           id="g350"><path
             id="path352"
             style="fill:#d83d3d;fill-opacity:1;fill-rule:nonzero;stroke:none"
             d="M 0,0 C 0,0.072 0.002,0.147 0.005,0.224 0.007,0.266 0.009,0.309 0.012,0.352 0.014,0.385 0.015,0.419 0.018,0.453 0.022,0.513 0.027,0.574 0.033,0.636 0.034,0.652 0.036,0.667 0.037,0.683 0.044,0.757 0.052,0.831 0.06,0.908 H -5.66 C -5.719,0.576 -5.753,0.271 -5.753,0 c 0,-1.628 0.152,-3.683 0.268,-4.906 0.016,-0.171 0.036,-0.344 0.057,-0.518 H 0.317 C 0.297,-5.248 0.28,-5.075 0.268,-4.906 0.152,-3.683 0,-1.628 0,0" /></g><g
           transform="translate(236.0609,742.1838)"
           id="g354"><path
             id="path356"
             style="fill:#ffffff;fill-opacity:1;fill-rule:nonzero;stroke:none"
             d="m 0,0 c -0.116,1.223 -0.268,3.278 -0.268,4.906 0,5.07 7.627,23.26 -5.138,24.238 h -0.978 -1.762 -0.977 c -12.766,-0.978 -5.138,-19.168 -5.138,-24.238 0,-1.628 -0.153,-3.683 -0.268,-4.906 -0.814,-8.605 -9.419,-24.592 -9.419,-33.257 0,-18.257 6.628,-29.827 6.628,-29.827 h 8.197 0.977 1.762 0.978 8.197 c 0,0 6.628,11.57 6.628,29.827 C 9.419,-24.592 0.814,-8.605 0,0" /></g><g
           transform="translate(236.0609,742.1838)"
           id="g358"><path
             id="path360"
             style="fill:#dddcdb;fill-opacity:1;fill-rule:nonzero;stroke:none"
             d="m 0,0 c -0.089,1.225 -0.268,3.278 -0.268,4.906 0,5.07 7.627,23.26 -5.138,24.238 h -0.978 -1.762 -0.977 c -0.356,-0.028 -0.694,-0.07 -1.018,-0.124 14.913,-3.496 4.12,-19.185 4.12,-24.114 0,-1.628 0.152,-3.683 0.268,-4.906 0.814,-8.605 8.14,-21.626 8.14,-30.292 0,-21.803 -14.709,-32.792 -14.709,-32.792 H 2.791 c 0,0 7.047,11.575 6.628,29.827 C 9.206,-24.013 0.575,-7.954 0,0" /></g><g
           transform="translate(221.4734,741.6663)"
           id="g362"><path
             id="path364"
             style="fill:#e84646;fill-opacity:1;fill-rule:nonzero;stroke:none"
             d="m 0,0 h 14.646 c -0.022,0.175 -0.042,0.348 -0.058,0.518 -0.116,1.222 -0.269,3.278 -0.269,4.906 0,0.267 0.023,0.572 0.061,0.908 H 0.266 C 0.304,5.996 0.326,5.691 0.326,5.424 0.326,3.796 0.174,1.74 0.058,0.518 0.042,0.348 0.022,0.175 0,0" /></g><g
           transform="translate(235.7928,747.09)"
           id="g366"><path
             id="path368"
             style="fill:#d83d3d;fill-opacity:1;fill-rule:nonzero;stroke:none"
             d="M 0,0 C 0,0.072 0.002,0.147 0.005,0.224 0.007,0.266 0.009,0.309 0.012,0.352 0.014,0.385 0.015,0.419 0.018,0.453 0.022,0.513 0.027,0.574 0.033,0.636 0.034,0.652 0.036,0.667 0.037,0.683 0.044,0.757 0.052,0.831 0.06,0.908 H -5.66 C -5.719,0.576 -5.753,0.271 -5.753,0 c 0,-1.628 0.152,-3.683 0.268,-4.906 0.016,-0.171 0.036,-0.344 0.057,-0.518 H 0.317 C 0.297,-5.248 0.282,-5.074 0.268,-4.906 0.166,-3.682 0,-1.628 0,0" /></g><g
           transform="translate(275.5081,742.1838)"
           id="g370"><path
             id="path372"
             style="fill:#ffffff;fill-opacity:1;fill-rule:nonzero;stroke:none"
             d="m 0,0 c -0.116,1.223 -0.268,3.278 -0.268,4.906 0,5.07 7.627,23.26 -5.138,24.238 h -0.978 -1.762 -0.977 c -12.766,-0.978 -5.138,-19.168 -5.138,-24.238 0,-1.628 -0.153,-3.683 -0.268,-4.906 -0.814,-8.605 -9.419,-24.592 -9.419,-33.257 0,-18.257 6.628,-29.827 6.628,-29.827 h 8.197 0.977 1.762 0.978 8.197 c 0,0 6.628,11.57 6.628,29.827 C 9.419,-24.592 0.814,-8.605 0,0" /></g><g
           transform="translate(275.5081,742.1838)"
           id="g374"><path
             id="path376"
             style="fill:#dddcdb;fill-opacity:1;fill-rule:nonzero;stroke:none"
             d="m 0,0 c -0.089,1.225 -0.268,3.278 -0.268,4.906 0,5.07 7.627,23.26 -5.138,24.238 h -0.978 -1.762 -0.977 c -0.356,-0.028 -0.694,-0.07 -1.018,-0.124 14.913,-3.496 4.12,-19.185 4.12,-24.114 0,-1.628 0.152,-3.683 0.268,-4.906 0.814,-8.605 8.14,-21.626 8.14,-30.292 0,-21.803 -14.709,-32.792 -14.709,-32.792 H 2.791 c 0,0 7.047,11.575 6.628,29.827 C 9.206,-24.013 0.575,-7.954 0,0" /></g><g
           transform="translate(260.9206,741.6663)"
           id="g378"><path
             id="path380"
             style="fill:#e84646;fill-opacity:1;fill-rule:nonzero;stroke:none"
             d="m 0,0 h 14.646 c -0.022,0.175 -0.042,0.348 -0.058,0.518 -0.116,1.222 -0.269,3.278 -0.269,4.906 0,0.267 0.023,0.572 0.061,0.908 H 0.266 C 0.304,5.996 0.326,5.691 0.326,5.424 0.326,3.796 0.174,1.74 0.058,0.518 0.042,0.348 0.022,0.175 0,0" /></g><g
           transform="translate(275.24,747.09)"
           id="g382"><path
             id="path384"
             style="fill:#d83d3d;fill-opacity:1;fill-rule:nonzero;stroke:none"
             d="M 0,0 C 0,0.072 0.002,0.147 0.005,0.224 0.007,0.266 0.009,0.309 0.012,0.352 0.014,0.385 0.015,0.419 0.018,0.453 0.022,0.513 0.027,0.574 0.033,0.636 0.034,0.652 0.036,0.667 0.037,0.683 0.044,0.757 0.052,0.831 0.06,0.908 H -5.66 C -5.719,0.576 -5.753,0.271 -5.753,0 c 0,-1.628 0.152,-3.683 0.268,-4.906 0.016,-0.171 0.036,-0.344 0.057,-0.518 H 0.317 C 0.297,-5.248 0.282,-5.074 0.268,-4.906 0.166,-3.682 0,-1.628 0,0" /></g><g
           transform="translate(314.9554,742.1838)"
           id="g386"><path
             id="path388"
             style="fill:#ffffff;fill-opacity:1;fill-rule:nonzero;stroke:none"
             d="m 0,0 c -0.116,1.223 -0.268,3.278 -0.268,4.906 0,5.07 7.627,23.26 -5.138,24.238 h -0.978 -1.762 -0.977 c -12.766,-0.978 -5.138,-19.168 -5.138,-24.238 0,-1.628 -0.153,-3.683 -0.268,-4.906 -0.814,-8.605 -9.419,-24.592 -9.419,-33.257 0,-18.257 6.628,-29.827 6.628,-29.827 h 8.197 0.977 1.762 0.978 8.197 c 0,0 6.628,11.57 6.628,29.827 C 9.419,-24.592 0.814,-8.605 0,0" /></g><g
           transform="translate(314.9554,742.1838)"
           id="g390"><path
             id="path392"
             style="fill:#dddcdb;fill-opacity:1;fill-rule:nonzero;stroke:none"
             d="m 0,0 c -0.089,1.225 -0.268,3.278 -0.268,4.906 0,5.07 7.627,23.26 -5.138,24.238 h -0.978 -1.762 -0.977 c -0.356,-0.028 -0.694,-0.07 -1.018,-0.124 14.913,-3.496 4.12,-19.185 4.12,-24.114 0,-1.628 0.152,-3.683 0.268,-4.906 0.814,-8.605 8.14,-21.626 8.14,-30.292 0,-21.803 -14.709,-32.792 -14.709,-32.792 H 2.791 c 0,0 7.048,11.575 6.628,29.827 C 9.206,-24.013 0.575,-7.954 0,0" /></g><g
           transform="translate(300.3678,741.6663)"
           id="g394"><path
             id="path396"
             style="fill:#e84646;fill-opacity:1;fill-rule:nonzero;stroke:none"
             d="m 0,0 h 14.646 c -0.022,0.175 -0.042,0.348 -0.058,0.518 -0.116,1.222 -0.269,3.278 -0.269,4.906 0,0.267 0.023,0.572 0.061,0.908 H 0.266 C 0.304,5.996 0.326,5.691 0.326,5.424 0.326,3.796 0.174,1.74 0.058,0.518 0.042,0.348 0.022,0.175 0,0" /></g><g
           transform="translate(314.6872,747.09)"
           id="g398"><path
             id="path400"
             style="fill:#d83d3d;fill-opacity:1;fill-rule:nonzero;stroke:none"
             d="M 0,0 C 0,0.072 0.002,0.147 0.005,0.224 0.007,0.266 0.009,0.309 0.012,0.352 0.014,0.385 0.015,0.419 0.018,0.453 0.022,0.513 0.027,0.574 0.033,0.636 0.034,0.652 0.036,0.667 0.037,0.683 0.044,0.757 0.052,0.831 0.06,0.908 H -5.66 C -5.719,0.576 -5.753,0.271 -5.753,0 c 0,-1.628 0.152,-3.683 0.268,-4.906 0.016,-0.171 0.036,-0.344 0.057,-0.518 H 0.317 C 0.297,-5.248 0.282,-5.074 0.268,-4.906 0.166,-3.682 0,-1.628 0,0" /></g><g
           transform="translate(719.4164,699.8312)"
           id="g402"><path
             id="path404"
             style="fill:#ffffff;fill-opacity:1;fill-rule:nonzero;stroke:none"
             d="m 0,0 c -1.223,-0.116 -3.278,-0.268 -4.906,-0.268 -5.07,0 -23.26,7.627 -24.238,-5.138 v -0.978 -1.762 -0.977 c 0.978,-12.766 19.168,-5.138 24.238,-5.138 1.628,0 3.683,-0.153 4.906,-0.268 8.605,-0.815 24.592,-9.419 33.257,-9.419 18.257,0 29.827,6.628 29.827,6.628 v 8.197 0.977 1.762 0.978 8.197 c 0,0 -11.57,6.628 -29.827,6.628 C 24.592,9.419 8.605,0.814 0,0" /></g><g
           transform="translate(719.4164,699.8312)"
           id="g406"><path
             id="path408"
             style="fill:#dddcdb;fill-opacity:1;fill-rule:nonzero;stroke:none"
             d="m 0,0 c -1.225,-0.089 -3.278,-0.268 -4.906,-0.268 -5.07,0 -23.26,7.627 -24.238,-5.138 v -0.978 -1.762 -0.977 c 0.028,-0.356 0.07,-0.694 0.124,-1.018 3.496,14.913 19.185,4.12 24.114,4.12 1.628,0 3.683,0.152 4.906,0.268 8.605,0.814 21.626,8.14 30.292,8.14 21.803,0 32.792,-14.709 32.792,-14.709 V 2.791 c 0,0 -11.575,7.047 -29.827,6.628 C 24.013,9.206 7.954,0.575 0,0" /></g><g
           transform="translate(719.934,685.2437)"
           id="g410"><path
             id="path412"
             style="fill:#e84646;fill-opacity:1;fill-rule:nonzero;stroke:none"
             d="m 0,0 v 14.646 c -0.175,-0.022 -0.348,-0.042 -0.518,-0.058 -1.222,-0.116 -3.278,-0.269 -4.906,-0.269 -0.267,0 -0.572,0.023 -0.908,0.061 V 0.266 c 0.336,0.038 0.641,0.06 0.908,0.06 1.628,0 3.684,-0.152 4.906,-0.268 C -0.348,0.042 -0.175,0.022 0,0" /></g><g
           transform="translate(714.5102,699.563)"
           id="g414"><path
             id="path416"
             style="fill:#d83d3d;fill-opacity:1;fill-rule:nonzero;stroke:none"
             d="m 0,0 c -0.072,0 -0.147,0.002 -0.224,0.005 -0.042,0.002 -0.085,0.004 -0.128,0.007 -0.033,0.002 -0.067,0.003 -0.101,0.006 -0.06,0.004 -0.121,0.009 -0.183,0.015 -0.015,0.001 -0.031,0.003 -0.047,0.004 -0.073,0.007 -0.148,0.015 -0.225,0.023 v -5.72 c 0.332,-0.059 0.637,-0.093 0.908,-0.093 1.628,0 3.683,0.152 4.906,0.268 0.171,0.016 0.344,0.036 0.518,0.057 V 0.317 C 5.248,0.297 5.075,0.282 4.906,0.268 3.682,0.166 1.628,0 0,0" /></g><g
           transform="translate(805.8738,742.1838)"
           id="g418"><path
             id="path420"
             style="fill:#ffffff;fill-opacity:1;fill-rule:nonzero;stroke:none"
             d="m 0,0 c -0.116,1.223 -0.268,3.278 -0.268,4.906 0,5.07 7.627,23.26 -5.138,24.238 h -0.978 -1.762 -0.977 c -12.766,-0.978 -5.138,-19.168 -5.138,-24.238 0,-1.628 -0.153,-3.683 -0.268,-4.906 -0.815,-8.605 -9.419,-24.592 -9.419,-33.257 0,-18.257 6.628,-29.827 6.628,-29.827 h 8.197 0.977 1.762 0.978 8.197 c 0,0 6.628,11.57 6.628,29.827 C 9.419,-24.592 0.814,-8.605 0,0" /></g><g
           transform="translate(805.8738,742.1838)"
           id="g422"><path
             id="path424"
             style="fill:#dddcdb;fill-opacity:1;fill-rule:nonzero;stroke:none"
             d="m 0,0 c -0.089,1.225 -0.268,3.278 -0.268,4.906 0,5.07 7.627,23.26 -5.138,24.238 h -0.978 -1.762 -0.977 c -0.356,-0.028 -0.694,-0.07 -1.018,-0.124 14.913,-3.496 4.12,-19.185 4.12,-24.114 0,-1.628 0.152,-3.683 0.268,-4.906 0.814,-8.605 8.14,-21.626 8.14,-30.292 0,-21.803 -14.709,-32.792 -14.709,-32.792 H 2.791 c 0,0 7.048,11.575 6.628,29.827 C 9.206,-24.013 0.575,-7.954 0,0" /></g><g
           transform="translate(791.2863,741.6663)"
           id="g426"><path
             id="path428"
             style="fill:#e84646;fill-opacity:1;fill-rule:nonzero;stroke:none"
             d="m 0,0 h 14.646 c -0.022,0.175 -0.042,0.348 -0.058,0.518 -0.116,1.222 -0.269,3.278 -0.269,4.906 0,0.267 0.023,0.572 0.061,0.908 H 0.266 C 0.304,5.996 0.326,5.691 0.326,5.424 0.326,3.796 0.174,1.74 0.058,0.518 0.042,0.348 0.022,0.175 0,0" /></g><g
           transform="translate(805.6056,747.09)"
           id="g430"><path
             id="path432"
             style="fill:#d83d3d;fill-opacity:1;fill-rule:nonzero;stroke:none"
             d="M 0,0 C 0,0.072 0.002,0.147 0.005,0.224 0.007,0.266 0.009,0.309 0.012,0.352 0.014,0.385 0.016,0.419 0.018,0.453 0.022,0.513 0.027,0.574 0.033,0.636 0.034,0.652 0.036,0.667 0.037,0.683 0.044,0.757 0.052,0.831 0.06,0.908 H -5.66 C -5.719,0.576 -5.753,0.271 -5.753,0 c 0,-1.628 0.152,-3.683 0.268,-4.906 0.016,-0.171 0.036,-0.344 0.057,-0.518 H 0.317 C 0.297,-5.248 0.28,-5.075 0.268,-4.906 0.153,-3.683 0,-1.628 0,0" /></g><g
           transform="translate(600.495,172.8646)"
           id="g434"><path
             id="path436"
             style="fill:#231f20;fill-opacity:1;fill-rule:nonzero;stroke:none"
             d="m 0,0 c 0,-49.231 -39.909,-89.14 -89.14,-89.14 -49.231,0 -89.14,39.909 -89.14,89.14 0,49.231 39.909,89.14 89.14,89.14 C -39.909,89.14 0,49.231 0,0" /></g><g
           transform="translate(592.6293,209.5292)"
           id="g438"><path
             id="path440"
             style="fill:#333132;fill-opacity:1;fill-rule:nonzero;stroke:none"
             d="m 0,0 c -13.182,29.175 -41.612,49.977 -75.128,52.261 -37.648,-2.728 -67.35,-34.114 -67.35,-72.457 0,-40.136 32.536,-72.672 72.672,-72.672 40.135,0 72.672,32.536 72.672,72.672 C 2.866,-13.185 1.853,-6.414 0,0" /></g><g
           transform="translate(553.5338,195.5686)"
           id="g442"><path
             id="path444"
             style="fill:#231f20;fill-opacity:1;fill-rule:nonzero;stroke:none"
             d="m 0,0 c 0,-4.7 -3.81,-8.51 -8.51,-8.51 -4.7,0 -8.51,3.81 -8.51,8.51 0,4.7 3.81,8.51 8.51,8.51 C -3.81,8.51 0,4.7 0,0" /></g><g
           transform="translate(564.8802,215.0197)"
           id="g446"><path
             id="path448"
             style="fill:#231f20;fill-opacity:1;fill-rule:nonzero;stroke:none"
             d="m 0,0 c 0,-4.7 -3.81,-8.51 -8.51,-8.51 -4.7,0 -8.51,3.81 -8.51,8.51 0,4.7 3.81,8.51 8.51,8.51 C -3.81,8.51 0,4.7 0,0" /></g><g
           transform="translate(578.9854,198)"
           id="g450"><path
             id="path452"
             style="fill:#231f20;fill-opacity:1;fill-rule:nonzero;stroke:none"
             d="m 0,0 c 0,-4.7 -3.81,-8.51 -8.51,-8.51 -4.7,0 -8.51,3.81 -8.51,8.51 0,4.7 3.81,8.51 8.51,8.51 C -3.81,8.51 0,4.7 0,0" /></g><g
           transform="translate(494.9049,240.9343)"
           id="g454"><path
             id="path456"
             style="fill:#939598;fill-opacity:1;fill-rule:nonzero;stroke:none"
             d="m 0,0 c 2.447,-5.655 -5.02,-14.329 -16.678,-19.373 -11.658,-5.045 -23.092,-4.55 -25.539,1.105 -2.447,5.655 5.02,14.328 16.678,19.373 C -13.881,6.15 -2.447,5.655 0,0" /></g><g
           transform="translate(139.9768,642.5703)"
           id="g458"><path
             id="path460"
             style="fill:#d83d3d;fill-opacity:1;fill-rule:nonzero;stroke:none"
             d="m 0,0 c 0,-10.409 -8.438,-18.847 -18.847,-18.847 -10.409,0 -18.847,8.438 -18.847,18.847 0,10.409 8.438,18.847 18.847,18.847 C -8.438,18.847 0,10.409 0,0" /></g><g
           transform="translate(138.3138,650.3223)"
           id="g462"><path
             id="path464"
             style="fill:#e84646;fill-opacity:1;fill-rule:nonzero;stroke:none"
             d="m 0,0 c -2.787,6.168 -8.798,10.567 -15.884,11.05 -7.96,-0.577 -14.24,-7.213 -14.24,-15.32 0,-8.486 6.879,-15.365 15.365,-15.365 8.486,0 15.365,6.879 15.365,15.365 C 0.606,-2.788 0.392,-1.356 0,0" /></g><g
           transform="translate(119.1503,641.4588)"
           id="g466"><path
             id="path468"
             style="fill:#d83d3d;fill-opacity:1;fill-rule:nonzero;stroke:none"
             d="m 0,0 c 0,-0.994 -0.806,-1.799 -1.799,-1.799 -0.994,0 -1.799,0.805 -1.799,1.799 0,0.994 0.805,1.799 1.799,1.799 C -0.806,1.799 0,0.994 0,0" /></g><g
           transform="translate(121.5492,645.5714)"
           id="g470"><path
             id="path472"
             style="fill:#d83d3d;fill-opacity:1;fill-rule:nonzero;stroke:none"
             d="m 0,0 c 0,-0.994 -0.806,-1.799 -1.799,-1.799 -0.994,0 -1.799,0.805 -1.799,1.799 0,0.994 0.805,1.799 1.799,1.799 C -0.806,1.799 0,0.994 0,0" /></g><g
           transform="translate(124.5315,641.9729)"
           id="g474"><path
             id="path476"
             style="fill:#d83d3d;fill-opacity:1;fill-rule:nonzero;stroke:none"
             d="m 0,0 c 0,-0.994 -0.806,-1.799 -1.799,-1.799 -0.994,0 -1.799,0.805 -1.799,1.799 0,0.994 0.805,1.799 1.799,1.799 C -0.806,1.799 0,0.994 0,0" /></g><g
           transform="translate(117.6518,656.9623)"
           id="g478"><path
             id="path480"
             style="fill:#f46e6e;fill-opacity:1;fill-rule:nonzero;stroke:none"
             d="m 0,0 c 0.517,-1.196 -1.061,-3.03 -3.526,-4.096 -2.465,-1.067 -4.883,-0.962 -5.4,0.234 -0.517,1.195 1.061,3.029 3.526,4.096 C -2.935,1.3 -0.517,1.196 0,0" /></g><path
           id="path482"
           style="fill:#2d2a2b;fill-opacity:1;fill-rule:nonzero;stroke:none"
           d="M 535.292,683 H 516.25 v 159.493 h 19.042 z" /><path
           id="path484"
           style="fill:#2d2a2b;fill-opacity:1;fill-rule:nonzero;stroke:none"
           d="m 431.109,683 h 19.042 v 159.493 h -19.042 z" /><path
           id="path486"
           style="fill:#2d2a2b;fill-opacity:1;fill-rule:nonzero;stroke:none"
           d="M 101.673,683 H 82.631 v 159.493 h 19.042 z" /><path
           id="path488"
           style="fill:#2d2a2b;fill-opacity:1;fill-rule:nonzero;stroke:none"
           d="M 16.446,683 H -2.596 v 159.493 h 19.042 z" /><path
           id="path490"
           style="fill:#965c29;fill-opacity:1;fill-rule:nonzero;stroke:none"
           d="m 516.208,683 h -66.057 v 159.493 h 66.057 z" /><g
           transform="translate(-11,480)"
           id="g492"><path
             id="path494"
             style="fill:#ad7131;fill-opacity:1;fill-rule:nonzero;stroke:none"
             d="M 0,0 V -56.786 L 527.208,203 h -66.057 z" /></g><path
           id="path496"
           style="fill:#965c29;fill-opacity:1;fill-rule:nonzero;stroke:none"
           d="M 82.503,683 H 16.446 v 159.493 h 66.057 z" /><path
           id="path498"
           style="fill:#292728;fill-opacity:1;fill-rule:nonzero;stroke:none"
           d="M 966.867,683.031 H 1302.5 V 842.524 H 966.867 Z" /><g
           transform="translate(1080.7396,677.2607)"
           id="g500"><path
             id="path502"
             style="fill:#231f20;fill-opacity:1;fill-rule:nonzero;stroke:none"
             d="m 0,0 c -8.666,0 -24.652,8.605 -33.257,9.419 -1.225,0.089 -3.278,0.268 -4.906,0.268 -0.145,0 -0.304,-0.008 -0.469,-0.02 -0.077,-0.005 -0.159,-0.014 -0.24,-0.022 -5.856,-0.563 -22.592,-7.053 -23.529,5.18 v 0.978 1.762 0.977 c 0.028,0.356 0.07,0.694 0.124,1.018 0,-0.002 10e-4,-0.005 0.002,-0.007 1.776,10.845 17.716,4.716 23.403,4.169 0.081,-0.008 0.163,-0.016 0.24,-0.022 0.165,-0.012 0.324,-0.02 0.469,-0.02 1.628,0 3.683,0.153 4.906,0.268 8.605,0.814 24.591,9.419 33.257,9.419 18.256,0 29.827,-6.628 29.827,-6.628 V 21.741 18.542 17.565 15.803 14.825 6.628 C 29.827,6.628 18.252,-0.419 0,0" /></g><g
           transform="translate(1129.0513,711.0339)"
           id="g504"><path
             id="path506"
             style="fill:#231f20;fill-opacity:1;fill-rule:nonzero;stroke:none"
             d="m 0,0 c 0,8.665 8.605,24.652 9.419,33.257 0.089,1.225 0.268,3.278 0.268,4.906 0,0.145 -0.008,0.304 -0.02,0.469 -0.005,0.077 -0.014,0.159 -0.022,0.24 -0.563,5.856 -7.053,22.592 5.18,23.529 h 0.978 1.761 0.978 c 0.356,-0.028 0.694,-0.07 1.018,-0.124 -0.003,0 -0.005,-10e-4 -0.008,-0.002 10.846,-1.776 4.717,-17.716 4.17,-23.403 -0.008,-0.081 -0.017,-0.163 -0.022,-0.24 -0.012,-0.165 -0.02,-0.324 -0.02,-0.469 0,-1.628 0.153,-3.683 0.268,-4.906 C 24.762,24.652 33.367,8.665 33.367,0 c 0,-18.257 -6.628,-29.827 -6.628,-29.827 H 21.741 18.542 17.564 15.803 14.825 6.628 c 0,0 -7.048,11.575 -6.628,29.827" /></g><g
           transform="translate(1212.3669,711.0339)"
           id="g508"><path
             id="path510"
             style="fill:#231f20;fill-opacity:1;fill-rule:nonzero;stroke:none"
             d="m 0,0 c 0,8.665 8.605,24.652 9.419,33.257 0.089,1.225 0.268,3.278 0.268,4.906 0,0.145 -0.008,0.304 -0.02,0.469 -0.005,0.077 -0.014,0.159 -0.022,0.24 -0.563,5.856 -7.053,22.592 5.18,23.529 h 0.978 1.762 0.977 c 0.356,-0.028 0.694,-0.07 1.018,-0.124 -0.002,0 -0.005,-10e-4 -0.007,-0.002 10.845,-1.776 4.716,-17.716 4.169,-23.403 -0.008,-0.081 -0.016,-0.163 -0.022,-0.24 -0.012,-0.165 -0.02,-0.324 -0.02,-0.469 0,-1.628 0.153,-3.683 0.268,-4.906 C 24.762,24.652 33.367,8.665 33.367,0 c 0,-18.257 -6.628,-29.827 -6.628,-29.827 H 21.741 18.542 17.565 15.803 14.825 6.628 c 0,0 -7.047,11.575 -6.628,29.827" /></g><g
           transform="translate(1008.9589,711.0339)"
           id="g512"><path
             id="path514"
             style="fill:#231f20;fill-opacity:1;fill-rule:nonzero;stroke:none"
             d="m 0,0 c 0,8.665 8.605,24.652 9.419,33.257 0.089,1.225 0.268,3.278 0.268,4.906 0,0.145 -0.008,0.304 -0.02,0.469 -0.005,0.077 -0.014,0.159 -0.022,0.24 -0.563,5.856 -7.053,22.592 5.18,23.529 h 0.978 1.762 0.977 c 0.356,-0.028 0.694,-0.07 1.018,-0.124 -0.002,0 -0.005,-10e-4 -0.007,-0.002 10.845,-1.776 4.716,-17.716 4.169,-23.403 -0.008,-0.081 -0.016,-0.163 -0.022,-0.24 -0.012,-0.165 -0.02,-0.324 -0.02,-0.469 0,-1.628 0.153,-3.683 0.268,-4.906 C 24.762,24.652 33.367,8.665 33.367,0 c 0,-18.257 -6.628,-29.827 -6.628,-29.827 H 21.741 18.542 17.565 15.803 14.825 6.628 c 0,0 -7.047,11.575 -6.628,29.827" /></g><g
           transform="translate(1201.6428,705.6902)"
           id="g516"><path
             id="path518"
             style="fill:#231f20;fill-opacity:1;fill-rule:nonzero;stroke:none"
             d="m 0,0 c 8.666,0 24.652,-8.605 33.257,-9.419 1.225,-0.089 3.278,-0.268 4.906,-0.268 0.145,0 0.304,0.008 0.469,0.02 0.077,0.005 0.159,0.014 0.24,0.022 5.856,0.563 22.592,7.053 23.529,-5.18 v -0.978 -1.762 -0.977 c -0.028,-0.356 -0.07,-0.694 -0.124,-1.018 0,0.002 -10e-4,0.005 -0.002,0.007 -1.776,-10.845 -17.716,-4.716 -23.403,-4.169 -0.081,0.008 -0.163,0.016 -0.24,0.022 -0.165,0.012 -0.324,0.02 -0.469,0.02 -1.628,0 -3.683,-0.153 -4.906,-0.268 C 24.652,-24.762 8.666,-33.367 0,-33.367 c -18.256,0 -29.827,6.628 -29.827,6.628 v 4.998 3.199 0.977 1.762 0.978 8.197 c 0,0 11.575,7.047 29.827,6.628" /></g><g
           transform="translate(1451.2928,453.5306)"
           id="g520"><path
             id="path522"
             style="fill:#ffc776;fill-opacity:1;fill-rule:nonzero;stroke:none"
             d="m 0,0 -565.813,230.769 h 22.226 c 0.587,-0.76 1.497,-1.285 2.75,-1.285 H 0 Z" /></g><g
           transform="translate(947.4705,683)"
           id="g524"><path
             id="path526"
             style="fill:#e2a85a;fill-opacity:1;fill-rule:nonzero;stroke:none"
             d="M 0,0 159.5,-0.016 327.173,0 h 108.57 l 54.37,-41.011 C 464.59,-78.812 393.706,-98.5 310.25,-98.5 226.304,-98.5 25.136,-38.148 0,0" /></g><g
           transform="translate(1318.4045,603.4326)"
           id="g528"><path
             id="path530"
             style="fill:#e2a85a;fill-opacity:1;fill-rule:nonzero;stroke:none"
             d="m 0,0 c 0,-6.365 9.46,-11.526 21.129,-11.526 11.669,0 21.129,5.161 21.129,11.526 0,6.365 -9.46,11.526 -21.129,11.526 C 9.46,11.526 0,6.365 0,0" /></g><g
           transform="translate(1451.2928,661.6305)"
           id="g532"><path
             id="path534"
             style="fill:#ad7131;fill-opacity:1;fill-rule:nonzero;stroke:none"
             d="m 0,0 -105.268,21.385 h 3.067 L 0,0.623 Z" /></g><g
           transform="translate(1451.2928,655.0122)"
           id="g536"><path
             id="path538"
             style="fill:#ad7131;fill-opacity:1;fill-rule:nonzero;stroke:none"
             d="m 0,0 -133.84,28.003 h 2.856 L 0,0.597 Z" /></g><g
           transform="translate(1451.2928,647.237)"
           id="g540"><path
             id="path542"
             style="fill:#ad7131;fill-opacity:1;fill-rule:nonzero;stroke:none"
             d="m 0,0 -165.881,35.778 h 2.66 L 0,0.574 Z" /></g><g
           transform="translate(1451.2928,639.4929)"
           id="g544"><path
             id="path546"
             style="fill:#ad7131;fill-opacity:1;fill-rule:nonzero;stroke:none"
             d="m 0,0 -195.556,43.522 h 2.481 L 0,0.552 Z" /></g><g
           transform="translate(1451.2928,630.5145)"
           id="g548"><path
             id="path550"
             style="fill:#ad7131;fill-opacity:1;fill-rule:nonzero;stroke:none"
             d="m 0,0 -228.384,52.501 h 2.325 L 0,0.534 Z" /></g><g
           transform="translate(1451.2928,620.742)"
           id="g552"><path
             id="path554"
             style="fill:#ad7131;fill-opacity:1;fill-rule:nonzero;stroke:none"
             d="m 0,0 -261.982,62.273 h 2.196 L 0,0.522 Z" /></g><g
           transform="translate(1451.2928,612.2)"
           id="g556"><path
             id="path558"
             style="fill:#ad7131;fill-opacity:1;fill-rule:nonzero;stroke:none"
             d="m 0,0 -287.782,70.815 h 2.099 L 0,0.516 Z" /></g><g
           transform="translate(1451.2928,602.2383)"
           id="g560"><path
             id="path562"
             style="fill:#ad7131;fill-opacity:1;fill-rule:nonzero;stroke:none"
             d="m 0,0 -316.703,80.777 h 2.038 L 0,0.52 Z" /></g><g
           transform="translate(1451.2928,569.5206)"
           id="g564"><path
             id="path566"
             style="fill:#ad7131;fill-opacity:1;fill-rule:nonzero;stroke:none"
             d="m 0,0 -428.735,113.494 h 2.017 L 0,0.534 Z" /></g><g
           transform="translate(1451.2928,574.7538)"
           id="g568"><path
             id="path570"
             style="fill:#ad7131;fill-opacity:1;fill-rule:nonzero;stroke:none"
             d="m 0,0 -408.967,108.261 h 2.018 L 0,0.534 Z" /></g><g
           transform="translate(1451.2928,580.6111)"
           id="g572"><path
             id="path574"
             style="fill:#ad7131;fill-opacity:1;fill-rule:nonzero;stroke:none"
             d="m 0,0 -386.84,102.404 h 2.017 L 0,0.534 Z" /></g><g
           transform="translate(1451.2928,587.5983)"
           id="g576"><path
             id="path578"
             style="fill:#ad7131;fill-opacity:1;fill-rule:nonzero;stroke:none"
             d="m 0,0 -360.445,95.417 h 2.017 L 0,0.534 Z" /></g><g
           transform="translate(1451.2928,593.2306)"
           id="g580"><path
             id="path582"
             style="fill:#ad7131;fill-opacity:1;fill-rule:nonzero;stroke:none"
             d="m 0,0 -339.169,89.784 h 2.018 L 0,0.534 Z" /></g><g
           transform="translate(1451.2928,560.7128)"
           id="g584"><path
             id="path586"
             style="fill:#ad7131;fill-opacity:1;fill-rule:nonzero;stroke:none"
             d="m 0,0 -444.502,122.302 h 2.038 L 0,0.561 Z" /></g><g
           transform="translate(1451.2928,549.5562)"
           id="g588"><path
             id="path590"
             style="fill:#ad7131;fill-opacity:1;fill-rule:nonzero;stroke:none"
             d="m 0,0 -465.948,133.459 h 2.098 L 0,0.601 Z" /></g><g
           transform="translate(1451.2928,539.4413)"
           id="g592"><path
             id="path594"
             style="fill:#ad7131;fill-opacity:1;fill-rule:nonzero;stroke:none"
             d="m 0,0 -480.713,143.574 h 2.195 L 0,0.656 Z" /></g><g
           transform="translate(1451.2928,528.418)"
           id="g596"><path
             id="path598"
             style="fill:#ad7131;fill-opacity:1;fill-rule:nonzero;stroke:none"
             d="m 0,0 -495.493,154.597 h 2.324 L 0,0.725 Z" /></g><g
           transform="translate(1451.2928,516.3599)"
           id="g600"><path
             id="path602"
             style="fill:#ad7131;fill-opacity:1;fill-rule:nonzero;stroke:none"
             d="m 0,0 -510.286,166.655 h 2.48 L 0,0.81 Z" /></g><g
           transform="translate(1451.2928,503.1149)"
           id="g604"><path
             id="path606"
             style="fill:#ad7131;fill-opacity:1;fill-rule:nonzero;stroke:none"
             d="m 0,0 -525.092,179.9 h 2.66 L 0,0.911 Z" /></g><g
           transform="translate(1451.2928,488.501)"
           id="g608"><path
             id="path610"
             style="fill:#ad7131;fill-opacity:1;fill-rule:nonzero;stroke:none"
             d="m 0,0 -539.906,194.514 h 2.856 L 0,1.029 Z" /></g><g
           transform="translate(1451.2928,472.2956)"
           id="g612"><path
             id="path614"
             style="fill:#ad7131;fill-opacity:1;fill-rule:nonzero;stroke:none"
             d="m 0,0 -558.107,212.004 h 3.066 L 0,1.165 Z" /></g><path
           id="path616"
           style="fill:#2d2a2b;fill-opacity:1;fill-rule:nonzero;stroke:none"
           d="m 968.847,683.031 h -19.042 v 159.493 h 19.042 z" /><path
           id="path618"
           style="fill:#2d2a2b;fill-opacity:1;fill-rule:nonzero;stroke:none"
           d="m 1298.283,683.031 h 19.042 v 159.493 h -19.042 z" /><path
           id="path620"
           style="fill:#2d2a2b;fill-opacity:1;fill-rule:nonzero;stroke:none"
           d="m 1383.51,683.031 h 19.042 v 159.493 h -19.042 z" /><path
           id="path622"
           style="fill:#965c29;fill-opacity:1;fill-rule:nonzero;stroke:none"
           d="m 1317.453,683.031 h 66.057 v 159.493 h -66.057 z" /><g
           transform="translate(-51.3369,655.1668)"
           id="g624"><path
             id="path626"
             style="fill:#ad7131;fill-opacity:1;fill-rule:nonzero;stroke:none"
             d="M 0,0 133.84,27.833 H 67.783 L 0,18.07 Z" /></g><g
           transform="translate(1383.5638,683)"
           id="g628"><path
             id="path630"
             style="fill:#333132;fill-opacity:1;fill-rule:nonzero;stroke:none"
             d="m 0,0 h 21.946 l 11,-10.5 z" /></g><g
           transform="translate(1451.3469,655.1668)"
           id="g632"><path
             id="path634"
             style="fill:#ad7131;fill-opacity:1;fill-rule:nonzero;stroke:none"
             d="m 0,0 -133.84,27.833 h 66.057 L 0,18.07 Z" /></g><path
           id="path636"
           style="fill:#965c29;fill-opacity:1;fill-rule:nonzero;stroke:none"
           d="m 883.77,683 h 66.057 V 842.493 H 883.77 Z" /><g
           transform="translate(1410.9783,480)"
           id="g638"><path
             id="path640"
             style="fill:#ad7131;fill-opacity:1;fill-rule:nonzero;stroke:none"
             d="M 0,0 V -56.786 L -527.208,203 h 66.057 z" /></g><g
           transform="translate(1048.7062,742.1838)"
           id="g642"><path
             id="path644"
             style="fill:#ffffff;fill-opacity:1;fill-rule:nonzero;stroke:none"
             d="m 0,0 c -0.116,1.223 -0.268,3.278 -0.268,4.906 0,5.07 7.627,23.26 -5.138,24.238 h -0.978 -1.762 -0.978 c -12.765,-0.978 -5.137,-19.168 -5.137,-24.238 0,-1.628 -0.153,-3.683 -0.269,-4.906 -0.814,-8.605 -9.418,-24.592 -9.418,-33.257 0,-18.257 6.628,-29.827 6.628,-29.827 h 8.196 0.978 1.762 0.978 8.197 c 0,0 6.628,11.57 6.628,29.827 C 9.419,-24.592 0.814,-8.605 0,0" /></g><g
           transform="translate(1048.7062,742.1838)"
           id="g646"><path
             id="path648"
             style="fill:#dddcdb;fill-opacity:1;fill-rule:nonzero;stroke:none"
             d="m 0,0 c -0.089,1.225 -0.268,3.278 -0.268,4.906 0,5.07 7.627,23.26 -5.138,24.238 h -0.978 -1.762 -0.978 c -0.355,-0.028 -0.693,-0.07 -1.017,-0.124 14.913,-3.496 4.12,-19.185 4.12,-24.114 0,-1.628 0.152,-3.683 0.268,-4.906 0.814,-8.605 8.14,-21.626 8.14,-30.292 0,-21.803 -14.709,-32.792 -14.709,-32.792 H 2.791 c 0,0 7.048,11.575 6.628,29.827 C 9.206,-24.013 0.575,-7.954 0,0" /></g><g
           transform="translate(1034.1187,741.6663)"
           id="g650"><path
             id="path652"
             style="fill:#e84646;fill-opacity:1;fill-rule:nonzero;stroke:none"
             d="m 0,0 h 14.646 c -0.022,0.175 -0.042,0.348 -0.058,0.518 -0.116,1.222 -0.269,3.278 -0.269,4.906 0,0.267 0.023,0.572 0.061,0.908 H 0.266 C 0.304,5.996 0.326,5.691 0.326,5.424 0.326,3.796 0.174,1.74 0.058,0.518 0.042,0.348 0.022,0.175 0,0" /></g><g
           transform="translate(1048.438,747.09)"
           id="g654"><path
             id="path656"
             style="fill:#d83d3d;fill-opacity:1;fill-rule:nonzero;stroke:none"
             d="M 0,0 C 0,0.072 0.002,0.147 0.005,0.224 0.007,0.266 0.009,0.309 0.012,0.352 0.014,0.385 0.016,0.419 0.018,0.453 0.022,0.513 0.027,0.574 0.033,0.636 0.034,0.652 0.036,0.667 0.037,0.683 0.044,0.757 0.052,0.831 0.06,0.908 H -5.66 C -5.719,0.576 -5.753,0.271 -5.753,0 c 0,-1.628 0.152,-3.683 0.268,-4.906 0.016,-0.171 0.036,-0.344 0.057,-0.518 H 0.317 C 0.297,-5.248 0.282,-5.074 0.268,-4.906 0.166,-3.682 0,-1.628 0,0" /></g><g
           transform="translate(1088.1533,742.1838)"
           id="g658"><path
             id="path660"
             style="fill:#ffffff;fill-opacity:1;fill-rule:nonzero;stroke:none"
             d="m 0,0 c -0.116,1.223 -0.268,3.278 -0.268,4.906 0,5.07 7.627,23.26 -5.138,24.238 h -0.978 -1.762 -0.977 c -12.766,-0.978 -5.138,-19.168 -5.138,-24.238 0,-1.628 -0.153,-3.683 -0.268,-4.906 -0.815,-8.605 -9.419,-24.592 -9.419,-33.257 0,-18.257 6.628,-29.827 6.628,-29.827 h 8.197 0.977 1.762 0.978 8.197 c 0,0 6.628,11.57 6.628,29.827 C 9.419,-24.592 0.814,-8.605 0,0" /></g><g
           transform="translate(1088.1533,742.1838)"
           id="g662"><path
             id="path664"
             style="fill:#dddcdb;fill-opacity:1;fill-rule:nonzero;stroke:none"
             d="m 0,0 c -0.089,1.225 -0.268,3.278 -0.268,4.906 0,5.07 7.627,23.26 -5.138,24.238 h -0.978 -1.762 -0.977 c -0.356,-0.028 -0.694,-0.07 -1.018,-0.124 14.913,-3.496 4.12,-19.185 4.12,-24.114 0,-1.628 0.152,-3.683 0.268,-4.906 0.814,-8.605 8.14,-21.626 8.14,-30.292 0,-21.803 -14.709,-32.792 -14.709,-32.792 H 2.791 c 0,0 7.048,11.575 6.628,29.827 C 9.207,-24.013 0.575,-7.954 0,0" /></g><g
           transform="translate(1073.5658,741.6663)"
           id="g666"><path
             id="path668"
             style="fill:#e84646;fill-opacity:1;fill-rule:nonzero;stroke:none"
             d="m 0,0 h 14.646 c -0.022,0.175 -0.042,0.348 -0.058,0.518 -0.116,1.222 -0.269,3.278 -0.269,4.906 0,0.267 0.023,0.572 0.061,0.908 H 0.266 C 0.304,5.996 0.326,5.691 0.326,5.424 0.326,3.796 0.174,1.74 0.058,0.518 0.042,0.348 0.022,0.175 0,0" /></g><g
           transform="translate(1087.8851,747.09)"
           id="g670"><path
             id="path672"
             style="fill:#d83d3d;fill-opacity:1;fill-rule:nonzero;stroke:none"
             d="m 0,0 c 0,0.072 0.002,0.147 0.005,0.224 0.002,0.042 0.004,0.085 0.007,0.128 0.002,0.033 0.004,0.067 0.006,0.101 0.004,0.06 0.009,0.121 0.015,0.183 0.001,0.016 0.003,0.031 0.004,0.047 0.007,0.074 0.015,0.148 0.024,0.225 H -5.66 C -5.719,0.576 -5.753,0.271 -5.753,0 c 0,-1.628 0.153,-3.683 0.268,-4.906 0.016,-0.171 0.036,-0.344 0.057,-0.518 H 0.317 C 0.297,-5.248 0.282,-5.074 0.268,-4.906 0.166,-3.682 0,-1.628 0,0" /></g><g
           transform="translate(1127.6006,742.1838)"
           id="g674"><path
             id="path676"
             style="fill:#ffffff;fill-opacity:1;fill-rule:nonzero;stroke:none"
             d="m 0,0 c -0.116,1.223 -0.268,3.278 -0.268,4.906 0,5.07 7.627,23.26 -5.138,24.238 h -0.978 -1.762 -0.978 c -12.765,-0.978 -5.137,-19.168 -5.137,-24.238 0,-1.628 -0.153,-3.683 -0.269,-4.906 -0.814,-8.605 -9.418,-24.592 -9.418,-33.257 0,-18.257 6.628,-29.827 6.628,-29.827 h 8.196 0.978 1.762 0.978 8.197 c 0,0 6.628,11.57 6.628,29.827 C 9.419,-24.592 0.814,-8.605 0,0" /></g><g
           transform="translate(1127.6006,742.1838)"
           id="g678"><path
             id="path680"
             style="fill:#dddcdb;fill-opacity:1;fill-rule:nonzero;stroke:none"
             d="m 0,0 c -0.089,1.225 -0.268,3.278 -0.268,4.906 0,5.07 7.627,23.26 -5.138,24.238 h -0.978 -1.762 -0.978 c -0.355,-0.028 -0.693,-0.07 -1.017,-0.124 14.913,-3.496 4.12,-19.185 4.12,-24.114 0,-1.628 0.152,-3.683 0.268,-4.906 0.814,-8.605 8.14,-21.626 8.14,-30.292 0,-21.803 -14.709,-32.792 -14.709,-32.792 H 2.791 c 0,0 7.048,11.575 6.628,29.827 C 9.206,-24.013 0.575,-7.954 0,0" /></g><g
           transform="translate(1113.0131,741.6663)"
           id="g682"><path
             id="path684"
             style="fill:#e84646;fill-opacity:1;fill-rule:nonzero;stroke:none"
             d="m 0,0 h 14.646 c -0.022,0.175 -0.042,0.348 -0.058,0.518 -0.116,1.222 -0.269,3.278 -0.269,4.906 0,0.267 0.023,0.572 0.061,0.908 H 0.266 C 0.304,5.996 0.326,5.691 0.326,5.424 0.326,3.796 0.174,1.74 0.058,0.518 0.042,0.348 0.022,0.175 0,0" /></g><g
           transform="translate(1127.3324,747.09)"
           id="g686"><path
             id="path688"
             style="fill:#d83d3d;fill-opacity:1;fill-rule:nonzero;stroke:none"
             d="M 0,0 C 0,0.072 0.002,0.147 0.005,0.224 0.007,0.266 0.009,0.309 0.012,0.352 0.014,0.385 0.016,0.419 0.018,0.453 0.022,0.513 0.027,0.574 0.033,0.636 0.034,0.652 0.036,0.667 0.037,0.683 0.044,0.757 0.052,0.831 0.06,0.908 H -5.66 C -5.719,0.576 -5.753,0.271 -5.753,0 c 0,-1.628 0.152,-3.683 0.268,-4.906 0.016,-0.171 0.036,-0.344 0.057,-0.518 H 0.317 C 0.297,-5.248 0.282,-5.074 0.268,-4.906 0.166,-3.682 0,-1.628 0,0" /></g><g
           transform="translate(1171.355,742.1838)"
           id="g690"><path
             id="path692"
             style="fill:#ffffff;fill-opacity:1;fill-rule:nonzero;stroke:none"
             d="m 0,0 c -0.116,1.223 -0.268,3.278 -0.268,4.906 0,5.07 7.627,23.26 -5.138,24.238 h -0.978 -1.762 -0.978 c -12.765,-0.978 -5.137,-19.168 -5.137,-24.238 0,-1.628 -0.153,-3.683 -0.269,-4.906 -0.814,-8.605 -9.418,-24.592 -9.418,-33.257 0,-18.257 6.628,-29.827 6.628,-29.827 h 8.196 0.978 1.762 0.978 8.197 c 0,0 6.628,11.57 6.628,29.827 C 9.419,-24.592 0.814,-8.605 0,0" /></g><g
           transform="translate(1171.355,742.1838)"
           id="g694"><path
             id="path696"
             style="fill:#dddcdb;fill-opacity:1;fill-rule:nonzero;stroke:none"
             d="m 0,0 c -0.089,1.225 -0.268,3.278 -0.268,4.906 0,5.07 7.627,23.26 -5.138,24.238 h -0.978 -1.762 -0.978 c -0.355,-0.028 -0.693,-0.07 -1.017,-0.124 14.913,-3.496 4.12,-19.185 4.12,-24.114 0,-1.628 0.152,-3.683 0.268,-4.906 0.814,-8.605 8.14,-21.626 8.14,-30.292 0,-21.803 -14.709,-32.792 -14.709,-32.792 H 2.791 c 0,0 7.048,11.575 6.628,29.827 C 9.206,-24.013 0.575,-7.954 0,0" /></g><g
           transform="translate(1156.7675,741.6663)"
           id="g698"><path
             id="path700"
             style="fill:#e84646;fill-opacity:1;fill-rule:nonzero;stroke:none"
             d="m 0,0 h 14.646 c -0.022,0.175 -0.042,0.348 -0.058,0.518 -0.116,1.222 -0.269,3.278 -0.269,4.906 0,0.267 0.023,0.572 0.061,0.908 H 0.266 C 0.304,5.996 0.326,5.691 0.326,5.424 0.326,3.796 0.174,1.74 0.058,0.518 0.042,0.348 0.022,0.175 0,0" /></g><g
           transform="translate(1171.0868,747.09)"
           id="g702"><path
             id="path704"
             style="fill:#d83d3d;fill-opacity:1;fill-rule:nonzero;stroke:none"
             d="M 0,0 C 0,0.072 0.002,0.147 0.005,0.224 0.007,0.266 0.009,0.309 0.012,0.352 0.014,0.385 0.016,0.419 0.018,0.453 0.022,0.513 0.027,0.574 0.033,0.636 0.034,0.652 0.036,0.667 0.037,0.683 0.044,0.757 0.052,0.831 0.06,0.908 H -5.66 C -5.719,0.576 -5.753,0.271 -5.753,0 c 0,-1.628 0.152,-3.683 0.268,-4.906 0.016,-0.171 0.036,-0.344 0.057,-0.518 H 0.317 C 0.297,-5.248 0.282,-5.074 0.268,-4.906 0.166,-3.682 0,-1.628 0,0" /></g><g
           transform="translate(1210.8021,742.1838)"
           id="g706"><path
             id="path708"
             style="fill:#ffffff;fill-opacity:1;fill-rule:nonzero;stroke:none"
             d="m 0,0 c -0.116,1.223 -0.268,3.278 -0.268,4.906 0,5.07 7.627,23.26 -5.138,24.238 h -0.978 -1.762 -0.977 c -12.765,-0.978 -5.138,-19.168 -5.138,-24.238 0,-1.628 -0.153,-3.683 -0.268,-4.906 -0.815,-8.605 -9.419,-24.592 -9.419,-33.257 0,-18.257 6.628,-29.827 6.628,-29.827 h 8.197 0.977 1.762 0.978 8.197 c 0,0 6.628,11.57 6.628,29.827 C 9.419,-24.592 0.814,-8.605 0,0" /></g><g
           transform="translate(1210.8021,742.1838)"
           id="g710"><path
             id="path712"
             style="fill:#dddcdb;fill-opacity:1;fill-rule:nonzero;stroke:none"
             d="m 0,0 c -0.089,1.225 -0.268,3.278 -0.268,4.906 0,5.07 7.627,23.26 -5.138,24.238 h -0.978 -1.762 -0.977 c -0.356,-0.028 -0.694,-0.07 -1.018,-0.124 14.913,-3.496 4.12,-19.185 4.12,-24.114 0,-1.628 0.152,-3.683 0.268,-4.906 0.814,-8.605 8.14,-21.626 8.14,-30.292 0,-21.803 -14.709,-32.792 -14.709,-32.792 H 2.791 c 0,0 7.048,11.575 6.628,29.827 C 9.207,-24.013 0.575,-7.954 0,0" /></g><g
           transform="translate(1196.2146,741.6663)"
           id="g714"><path
             id="path716"
             style="fill:#e84646;fill-opacity:1;fill-rule:nonzero;stroke:none"
             d="m 0,0 h 14.646 c -0.022,0.175 -0.042,0.348 -0.058,0.518 -0.116,1.222 -0.269,3.278 -0.269,4.906 0,0.267 0.023,0.572 0.061,0.908 H 0.266 C 0.304,5.996 0.326,5.691 0.326,5.424 0.326,3.796 0.174,1.74 0.058,0.518 0.042,0.348 0.022,0.175 0,0" /></g><g
           transform="translate(1210.5341,747.09)"
           id="g718"><path
             id="path720"
             style="fill:#d83d3d;fill-opacity:1;fill-rule:nonzero;stroke:none"
             d="M 0,0 C 0,0.072 0.002,0.147 0.005,0.224 0.006,0.266 0.009,0.309 0.012,0.352 0.014,0.385 0.015,0.419 0.018,0.453 0.022,0.513 0.027,0.574 0.033,0.636 0.034,0.652 0.036,0.667 0.037,0.683 0.044,0.757 0.052,0.831 0.06,0.908 H -5.66 C -5.719,0.576 -5.753,0.271 -5.753,0 c 0,-1.628 0.152,-3.683 0.268,-4.906 0.016,-0.171 0.036,-0.344 0.057,-0.518 H 0.317 C 0.297,-5.248 0.282,-5.074 0.268,-4.906 0.166,-3.682 0,-1.628 0,0" /></g><g
           transform="translate(1250.2494,742.1838)"
           id="g722"><path
             id="path724"
             style="fill:#ffffff;fill-opacity:1;fill-rule:nonzero;stroke:none"
             d="m 0,0 c -0.116,1.223 -0.268,3.278 -0.268,4.906 0,5.07 7.627,23.26 -5.138,24.238 h -0.978 -1.762 -0.977 c -12.766,-0.978 -5.138,-19.168 -5.138,-24.238 0,-1.628 -0.153,-3.683 -0.269,-4.906 -0.814,-8.605 -9.418,-24.592 -9.418,-33.257 0,-18.257 6.628,-29.827 6.628,-29.827 h 8.197 0.977 1.762 0.978 8.197 c 0,0 6.628,11.57 6.628,29.827 C 9.419,-24.592 0.814,-8.605 0,0" /></g><g
           transform="translate(1250.2494,742.1838)"
           id="g726"><path
             id="path728"
             style="fill:#dddcdb;fill-opacity:1;fill-rule:nonzero;stroke:none"
             d="m 0,0 c -0.089,1.225 -0.268,3.278 -0.268,4.906 0,5.07 7.627,23.26 -5.138,24.238 h -0.978 -1.762 -0.977 c -0.356,-0.028 -0.694,-0.07 -1.018,-0.124 14.913,-3.496 4.12,-19.185 4.12,-24.114 0,-1.628 0.152,-3.683 0.268,-4.906 0.814,-8.605 8.14,-21.626 8.14,-30.292 0,-21.803 -14.709,-32.792 -14.709,-32.792 H 2.791 c 0,0 7.048,11.575 6.628,29.827 C 9.206,-24.013 0.575,-7.954 0,0" /></g><g
           transform="translate(1235.6619,741.6663)"
           id="g730"><path
             id="path732"
             style="fill:#e84646;fill-opacity:1;fill-rule:nonzero;stroke:none"
             d="m 0,0 h 14.646 c -0.022,0.175 -0.042,0.348 -0.058,0.518 -0.116,1.222 -0.269,3.278 -0.269,4.906 0,0.267 0.023,0.572 0.061,0.908 H 0.266 C 0.304,5.996 0.326,5.691 0.326,5.424 0.326,3.796 0.174,1.74 0.058,0.518 0.042,0.348 0.022,0.175 0,0" /></g><g
           transform="translate(1249.9812,747.09)"
           id="g734"><path
             id="path736"
             style="fill:#d83d3d;fill-opacity:1;fill-rule:nonzero;stroke:none"
             d="M 0,0 C 0,0.072 0.002,0.147 0.005,0.224 0.007,0.266 0.009,0.309 0.012,0.352 0.014,0.385 0.016,0.419 0.018,0.453 0.022,0.513 0.027,0.574 0.033,0.636 0.034,0.652 0.036,0.667 0.037,0.683 0.044,0.757 0.052,0.831 0.06,0.908 H -5.66 C -5.719,0.576 -5.753,0.271 -5.753,0 c 0,-1.628 0.153,-3.683 0.268,-4.906 0.016,-0.171 0.036,-0.344 0.057,-0.518 H 0.317 C 0.297,-5.248 0.282,-5.074 0.268,-4.906 0.166,-3.682 0,-1.628 0,0" /></g></g></g></g></svg>