<?xml version="1.0" encoding="UTF-8"?>
<svg viewBox="0 0 133.17 99.797" xmlns="http://www.w3.org/2000/svg">
 <polygon points="122.3 16.328 88.877 51.285 85.976 52.483 82.505 49.102 82.12 44.505 109.23 0.84113 114.86 4.2931 121.44 1.7361 120.23 8.3481 125.01 13.693" fill="#fce900"/>
 <path d="m85.932 52.725l-3.626-3.528-0.397-4.742 0.037-0.058 27.22-43.84 5.714 3.507 6.836-2.653-1.266 6.876 4.844 5.417-2.847 2.77-33.451 34.985-3.064 1.266zm-3.23-3.715l3.322 3.228 2.731-1.127 33.397-34.926 2.566-2.499-4.715-5.275 1.169-6.347-6.336 2.459-5.538-3.397-26.969 43.433 0.373 4.451z" fill="#fff"/>
 <g fill="#f6cc1e">
  <polyline points="81.894 44.125 82.551 48.515 104.55 13.434 110.28 8.4331 108.65 1.1711"/>
  <polygon points="114.63 20.718 111.8 14.736 84.134 50.104 85.294 52.167"/>
 </g>
 <polygon points="83.369 50.328 84.177 50.952 84.177 50.952 112.32 14.391 111.51 13.768"/>
 <polygon points="82.08 49.01 82.952 49.544 82.952 49.544 105.17 13.267 104.3 12.732"/>
 <polygon points="85.294 52.167 86.049 52.855 86.049 52.855 115.13 20.908 114.37 20.22"/>
 <line x1="108.65" x2="82.598" y1="1.1711" y2="43.955" fill="#e2001a"/>
 <polygon points="81.894 44.125 82.767 44.659 82.767 44.659 109.36 1.0011 108.48 0.46912"/>
 <polygon points="125.73 13.68 124.99 12.97 124.64 13.34 88.583 50.855 86.094 51.88 83.009 48.88 82.81 43.685 81.786 43.722 82.003 49.328 85.863 53.082 85.863 53.082 89.17 51.718 89.244 51.64"/>
 <path d="m114.54 21.184c0.052002 0.018005 0.108 0.031006 0.16501 0.032013 0.194 0.004974 0.37399-0.10001 0.46597-0.272l3.238-6.121 6.879-0.802c0.19202-0.022003 0.35501-0.15302 0.423-0.336 0.063995-0.18402 0.022003-0.388-0.11398-0.52701l-4.82-4.973 1.363-6.789c0.037994-0.19101-0.037018-0.38602-0.19101-0.50601-0.15302-0.117-0.35998-0.13901-0.535-0.053009l-6.219 3.048-6.034-3.396c-0.17401-0.096985-0.38101-0.085999-0.54199 0.02301-0.16 0.112-0.24402 0.302-0.21402 0.495l0.976 6.856-5.095 4.69c-0.143 0.133-0.199 0.33402-0.143 0.522 0.053009 0.186 0.21201 0.32602 0.401 0.358l6.822 1.189 2.889 6.294c0.057007 0.12601 0.16101 0.22101 0.285 0.268zm9.6-8.06l-6.115 0.715c-0.16699 0.018005-0.314 0.12-0.39398 0.26901l-2.88 5.44-2.566-5.595c-0.071991-0.15402-0.20999-0.263-0.379-0.29102l-6.067-1.059 4.532-4.17c0.12302-0.11499 0.18402-0.28198 0.15802-0.448l-0.867-6.096 5.364 3.018c0.146 0.080994 0.328 0.088013 0.478 0.013l5.529-2.709-1.211 6.036c-0.035004 0.16702 0.016998 0.33502 0.134 0.457l4.284 4.42z"/>
 <polygon points="126.9 41.532 93.505 65.077 90.909 65.597 88.58 62.231 89.006 58.359 118.57 26.572 122.68 30.347 128.55 29.299 126.47 34.582 129.56 39.789" fill="#fce900"/>
 <path d="m90.828 65.79l-2.431-3.514 0.441-3.994 0.04-0.042 29.688-31.915 4.166 3.835 6.096-1.087-2.166 5.492 3.138 5.279-2.812 1.833-33.411 23.562-2.749 0.551zm-2.069-3.603l2.229 3.217 2.445-0.49 33.361-23.525 2.53-1.654-3.051-5.138 2.002-5.072-5.653 1.011-4.039-3.718-29.413 31.618-0.411 3.751z" fill="#fff"/>
 <g fill="#f6cc1e">
  <polyline points="88.884 58.007 88.712 61.753 112.65 36.249 118.21 33.035 118.04 26.753"/>
  <polygon points="119.82 43.927 118.45 38.507 89.768 63.327 90.392 65.226"/>
 </g>
 <polygon points="89.094 63.389 89.665 64.036 89.665 64.036 118.94 38.307 118.37 37.658"/>
 <polygon points="88.242 62.086 88.878 62.671 88.878 62.671 113.19 36.21 112.55 35.628"/>
 <polygon points="90.392 65.226 90.91 65.917 90.91 65.917 120.2 44.164 119.69 43.47"/>
 <line x1="118.04" x2="89.491" y1="26.753" y2="57.98" fill="#e2001a"/>
 <polygon points="88.884 58.007 89.518 58.591 89.518 58.591 118.65 26.724 118.01 26.141"/>
 <polygon points="130.16 39.896 129.67 39.187 129.31 39.436 93.332 64.671 91.102 65.118 89.032 62.128 89.712 57.79 88.859 57.655 88.126 62.337 90.715 66.075 90.715 66.075 93.677 65.481 93.753 65.431"/>
 <path d="m119.67 44.299c0.037994 0.020996 0.083008 0.040985 0.13101 0.050995 0.16 0.036011 0.324-0.020996 0.42999-0.14801l3.682-4.547 5.83 0.452c0.164 0.013 0.319-0.069 0.40201-0.211 0.087006-0.14099 0.082001-0.31699-0.007996-0.45599l-3.187-4.903 2.232-5.406c0.063019-0.15201 0.033997-0.327-0.072998-0.45001-0.11099-0.12299-0.27899-0.176-0.43799-0.134l-5.648 1.518-4.454-3.794c-0.125-0.10898-0.297-0.13498-0.44998-0.067993-0.151 0.06601-0.25101 0.20999-0.26001 0.375l-0.303 5.84-4.985 3.06c-0.14099 0.085999-0.22 0.24503-0.20401 0.41 0.016998 0.16202 0.121 0.30301 0.27502 0.362l5.462 2.094 1.372 5.685c0.026001 0.11298 0.097015 0.20999 0.194 0.26999zm9.267-5.123l-5.186-0.401c-0.14398-0.011993-0.28101 0.048004-0.371 0.15802l-3.27 4.042-1.221-5.056c-0.035004-0.13901-0.13199-0.25-0.26498-0.301l-4.855-1.862 4.432-2.722c0.12299-0.075989 0.198-0.20599 0.20499-0.34598l0.271-5.194 3.958 3.374c0.10602 0.091003 0.25601 0.12601 0.392 0.088013l5.026-1.348-1.987 4.807c-0.056 0.13199-0.041992 0.27899 0.037018 0.39999l2.834 4.361z"/>
 <polygon points="128.8 60.68 96.545 73.767 94.288 73.696 93.006 70.451 94.109 67.321 124.79 46.658 127.47 50.586 132.54 50.849 129.79 54.832 131.35 59.749" fill="#fce900"/>
 <path d="m94.185 73.843l-1.34-3.389 1.141-3.227 0.04-0.028 30.803-20.748 2.717 3.989 5.271 0.275-2.859 4.138 1.581 4.988-2.687 0.978-32.278 13.094-2.389-0.07zm-1.019-3.393l1.226 3.102 2.123 0.063 32.23-13.072 2.422-0.884-1.539-4.854 2.642-3.82-4.887-0.256-2.633-3.867-30.518 20.554-1.066 3.034z" fill="#fff"/>
 <g fill="#f6cc1e">
  <polyline points="94.073 67.006 93.207 70.083 118 53.544 123.23 51.948 124.31 46.706"/>
  <polygon points="122.47 61.3 122.38 56.538 93.781 71.591 93.933 73.288"/>
 </g>
 <polygon points="93.211 71.511 93.556 72.161 93.556 72.161 122.82 56.466 122.47 55.817"/>
 <polygon points="92.753 70.269 93.168 70.876 93.168 70.876 118.46 53.616 118.04 53.011"/>
 <polygon points="93.933 73.288 94.225 73.962 94.225 73.962 122.74 61.571 122.45 60.898"/>
 <line x1="124.31" x2="94.584" y1="46.706" y2="67.101" fill="#e2001a"/>
 <polygon points="94.073 67.006 94.49 67.612 94.49 67.612 124.82 46.799 124.41 46.192"/>
 <polygon points="131.83 59.955 131.55 59.27 131.22 59.407 96.478 73.397 94.541 73.335 93.401 70.454 94.804 66.987 94.122 66.708 92.609 70.452 94.034 74.056 94.034 74.056 96.609 74.135 96.682 74.109"/>
 <path d="m122.28 61.583c0.026001 0.02301 0.061005 0.046997 0.097992 0.06601 0.12601 0.061005 0.27402 0.044983 0.38501-0.041016l3.935-3.062 4.75 1.502c0.13501 0.044006 0.27899 0.003998 0.37701-0.096008 0.098999-0.099976 0.129-0.24799 0.080994-0.38098l-1.697-4.684 2.897-4.057c0.084015-0.11301 0.093018-0.26401 0.026001-0.38699-0.065002-0.125-0.198-0.20001-0.33798-0.19601l-4.98 0.167-2.96-4.008c-0.085999-0.11499-0.224-0.16901-0.36099-0.14398-0.13901 0.024994-0.24902 0.12698-0.28802 0.25998l-1.382 4.79-4.729 1.576c-0.13199 0.042999-0.229 0.16-0.24698 0.29901-0.02002 0.138 0.042999 0.27701 0.15698 0.35501l4.127 2.793 0.042 4.982c-0.003998 0.10098 0.037994 0.19598 0.107 0.26599zm8.676-2.461l-4.222-1.336c-0.11801-0.036987-0.24402-0.014008-0.34 0.061005l-3.496 2.724-0.033-4.433c-0.002991-0.12299-0.061005-0.23398-0.16299-0.30298l-3.669-2.483 4.204-1.403c0.11301-0.036987 0.203-0.13098 0.23801-0.24399l1.228-4.259 2.633 3.564c0.069 0.098999 0.18701 0.15399 0.30701 0.14801l4.431-0.146-2.578 3.604c-0.070007 0.10202-0.087006 0.22702-0.046997 0.341l1.507 4.165z"/>
 <polygon points="11.532 15.904 44.959 50.861 47.86 52.06 51.33 48.678 51.713 44.082 24.603 0.41812 18.976 3.8701 12.39 1.3141 13.609 7.9251 8.8276 13.271" fill="#fce900"/>
 <path d="m47.906 52.304l3.624-3.529 0.398-4.743-0.038-0.058-27.22-43.84-5.715 3.507-6.836-2.653 1.269 6.876-4.845 5.417 2.845 2.77 33.451 34.985 3.067 1.268zm3.225-3.717l-3.32 3.229-2.73-1.128-33.4-34.927-2.565-2.5 4.717-5.275-1.171-6.347 6.337 2.459 5.538-3.397 26.968 43.433-0.374 4.453z" fill="#fff"/>
 <g fill="#f6cc1e">
  <polyline points="51.943 43.702 51.285 48.092 29.284 13.011 23.559 8.0101 25.181 0.74811"/>
  <polygon points="19.203 20.295 22.029 14.312 49.701 49.679 48.542 51.743"/>
 </g>
 <polygon points="50.468 49.905 49.659 50.528 49.659 50.528 21.513 13.969 22.324 13.346"/>
 <polygon points="51.758 48.588 50.883 49.122 50.883 49.122 28.664 12.844 29.539 12.309"/>
 <polygon points="48.542 51.743 47.785 52.433 47.785 52.433 18.705 20.486 19.46 19.798"/>
 <line x1="25.181" x2="51.24" y1=".74811" y2="43.531" fill="#e2001a"/>
 <polygon points="51.943 43.702 51.07 44.236 51.07 44.236 24.479 0.57812 25.352 0.046112"/>
 <polygon points="8.1056 13.257 8.8426 12.548 9.1966 12.917 45.254 50.433 47.744 51.458 50.829 48.457 51.026 43.263 52.046 43.299 51.834 48.903 47.973 52.659 47.973 52.659 44.664 51.294 44.591 51.217"/>
 <path d="m19.288 20.76c-0.05101 0.019012-0.10501 0.031006-0.16301 0.032013-0.194 0.004974-0.373-0.10001-0.467-0.272l-3.239-6.121-6.876-0.801c-0.19299-0.022003-0.35599-0.15302-0.424-0.336-0.065002-0.18402-0.020996-0.388 0.114-0.52701l4.819-4.974-1.362-6.788c-0.037003-0.19101 0.03801-0.38602 0.19-0.50702 0.15401-0.11798 0.36-0.13901 0.534-0.053009l6.22 3.048 6.035-3.394c0.175-0.098022 0.379-0.087006 0.54201 0.022003 0.15799 0.112 0.245 0.302 0.215 0.496l-0.978 6.855 5.096 4.691c0.14401 0.13199 0.19803 0.33301 0.14401 0.521-0.056 0.186-0.20999 0.32599-0.405 0.35901l-6.82 1.189-2.889 6.293c-0.054993 0.12601-0.162 0.22198-0.286 0.267zm-9.597-8.059l6.114 0.712c0.16899 0.02002 0.315 0.12201 0.396 0.27103l2.877 5.441 2.569-5.596c0.070007-0.15402 0.207-0.263 0.37801-0.29102l6.064-1.058-4.53-4.171c-0.123-0.11499-0.18401-0.28198-0.158-0.448l0.867-6.096-5.364 3.017c-0.146 0.082001-0.325 0.087006-0.478 0.013l-5.529-2.709 1.213 6.036c0.033005 0.16699-0.016998 0.336-0.134 0.457l-4.285 4.422z"/>
 <polygon points="6.2776 39.094 39.667 62.638 42.264 63.159 44.592 59.792 44.166 55.921 14.595 24.132 10.493 27.91 4.6186 26.86 6.7016 32.143 3.6096 37.351" fill="#fce900"/>
 <path d="m42.341 63.353l2.433-3.516-0.441-3.994-0.039-0.041-29.688-31.916-4.165 3.835-6.097-1.088 2.167 5.492-3.137 5.28 2.811 1.833 33.412 23.564 2.744 0.551zm2.072-3.605l-2.229 3.218-2.446-0.492-33.36-23.524-2.533-1.654 3.052-5.139-2-5.071 5.65 1.011 4.041-3.717 29.411 31.618 0.414 3.75z" fill="#fff"/>
 <g fill="#f6cc1e">
  <polyline points="44.289 55.568 44.457 59.314 20.525 33.81 14.966 30.595 15.127 24.313"/>
  <polygon points="13.351 41.487 14.723 36.069 43.405 60.888 42.78 62.787"/>
 </g>
 <polygon points="44.077 60.948 43.506 61.597 43.506 61.597 14.234 35.868 14.806 35.219"/>
 <polygon points="44.929 59.648 44.293 60.232 44.293 60.232 19.98 33.771 20.621 33.188"/>
 <polygon points="42.78 62.787 42.263 63.479 42.263 63.479 12.97 41.725 13.481 41.03"/>
 <line x1="15.127" x2="43.682" y1="24.313" y2="55.542" fill="#e2001a"/>
 <polygon points="44.289 55.568 43.653 56.152 43.653 56.152 14.518 24.285 15.157 23.703"/>
 <polygon points="3.0096 37.457 3.5046 36.748 3.8566 36.997 39.838 62.234 42.071 62.679 44.14 59.691 43.459 55.353 44.315 55.216 45.047 59.898 42.456 63.638 42.456 63.638 39.495 63.044 39.42 62.992"/>
 <path d="m13.497 41.859c-0.03801 0.022003-0.083008 0.041992-0.13 0.053009-0.162 0.03598-0.327-0.022003-0.43201-0.14999l-3.681-4.546-5.83 0.452c-0.16301 0.013-0.32001-0.067993-0.40201-0.211-0.087006-0.13998-0.084-0.31598 0.007996-0.45599l3.186-4.904-2.23-5.405c-0.065002-0.15201-0.035995-0.327 0.070999-0.45001 0.10899-0.12399 0.278-0.176 0.438-0.133l5.649 1.517 4.451-3.794c0.12801-0.10898 0.302-0.13498 0.451-0.069 0.151 0.06601 0.25301 0.21002 0.26199 0.375l0.303 5.84 4.985 3.06c0.14099 0.087006 0.21899 0.24503 0.202 0.41-0.013992 0.16202-0.121 0.30402-0.273 0.36301l-5.462 2.094-1.371 5.686c-0.026001 0.112-0.097 0.20902-0.19499 0.268zm-9.265-5.121l5.185-0.403c0.142-0.01001 0.282 0.048981 0.369 0.159l3.271 4.043 1.221-5.056c0.031006-0.13901 0.13101-0.25101 0.265-0.301l4.855-1.863-4.432-2.721c-0.123-0.074005-0.19699-0.20499-0.20599-0.345l-0.27-5.194-3.958 3.374c-0.10599 0.089996-0.25699 0.125-0.39299 0.088013l-5.024-1.349 1.985 4.807c0.056992 0.133 0.039993 0.28-0.035004 0.39899l-2.833 4.362z"/>
 <polygon points="4.3696 58.242 36.629 71.327 38.882 71.257 40.166 68.013 39.065 64.882 8.3826 44.219 5.7056 48.146 0.63063 48.41 3.3786 52.393 1.8206 57.312" fill="#fce900"/>
 <path d="m38.988 71.403l1.338-3.387-1.138-3.229-0.04-0.029-30.807-20.746-2.716 3.989-5.269 0.276 2.857 4.137-1.581 4.986 2.688 0.979 32.279 13.095 2.389-0.071zm1.019-3.392l-1.228 3.102-2.124 0.063-32.23-13.071-2.421-0.885 1.538-4.854-2.639-3.82 4.884-0.255 2.634-3.866 30.518 20.553 1.068 3.033z" fill="#fff"/>
 <g fill="#f6cc1e">
  <polyline points="39.098 64.566 39.966 67.644 15.172 51.105 9.9376 49.511 8.8586 44.267"/>
  <polygon points="10.702 58.862 10.793 54.101 39.393 69.152 39.241 70.849"/>
 </g>
 <polygon points="39.961 69.071 39.613 69.722 39.613 69.722 10.351 54.027 10.7 53.378"/>
 <polygon points="40.419 67.827 40.002 68.438 40.002 68.438 14.715 51.177 15.131 50.57"/>
 <polygon points="39.241 70.849 38.945 71.524 38.945 71.524 10.432 59.134 10.724 58.458"/>
 <line x1="8.8586" x2="38.588" y1="44.267" y2="64.663" fill="#e2001a"/>
 <polygon points="39.098 64.566 38.684 65.173 38.684 65.173 8.3466 44.36 8.7646 43.754"/>
 <polygon points="1.3406 57.517 1.6156 56.831 1.9566 56.969 36.693 70.958 38.632 70.898 39.77 68.017 38.369 64.549 39.051 64.27 40.561 68.014 39.137 71.616 39.137 71.616 36.563 71.696 36.492 71.669"/>
 <path d="m10.897 59.144c-0.028 0.02301-0.061996 0.046997-0.101 0.06601-0.127 0.061981-0.27301 0.044983-0.386-0.041016l-3.933-3.062-4.75 1.504c-0.136 0.042999-0.278 0.003998-0.377-0.098999-0.098007-0.098022-0.12901-0.24503-0.07901-0.38l1.696-4.684-2.896-4.055c-0.082993-0.11499-0.093994-0.263-0.026993-0.38599 0.065994-0.125 0.196-0.202 0.33899-0.19702l4.979 0.168 2.962-4.009c0.084-0.11499 0.222-0.16898 0.35899-0.146 0.14101 0.026001 0.25101 0.12601 0.29001 0.26102l1.38 4.789 4.73 1.575c0.13 0.045013 0.229 0.16202 0.24701 0.302 0.018005 0.13602-0.044006 0.27499-0.158 0.354l-4.13 2.793-0.039 4.983c0.003998 0.10199-0.03801 0.19299-0.106 0.26401zm-8.678-2.46l4.223-1.338c0.116-0.036011 0.244-0.014984 0.339 0.062012l3.495 2.722 0.035-4.432c0.002991-0.12299 0.059998-0.23498 0.15999-0.301l3.671-2.484-4.204-1.402c-0.115-0.039001-0.205-0.13202-0.23801-0.245l-1.227-4.259-2.634 3.564c-0.068008 0.095001-0.186 0.15298-0.30701 0.147l-4.431-0.146 2.577 3.602c0.070007 0.10098 0.088013 0.22501 0.049011 0.34l-1.508 4.17z"/>
 <path d="m28.378 42.374s-3.9 0.26999-4.643 4.104c0 0-0.202 2.22 0.40401 4.776 0 0 2.152 8.476-0.27 13.992 0 0-3.365 7.063-3.633 8.679 0 0-1.278 6.928-0.068008 12.041 0 0 2.558 8.746 4.44 11.639 0 0 3.836 1.01 7.133-0.065979 0 0 3.969-6.459 4.775-12.312 0 0 1.009-6.188-0.06601-10.629 0 0-2.289-5.853-4.509-11.436 0 0-0.73999-3.363-0.134-7.804 0 0 1.614-6.795 0.74103-10.023 0.001984-0.001007-1.346-2.76-4.17-2.961z" fill="#fff"/>
 <path d="m27.775 41.577c-7.533 0.646-3.835 10.09-3.523 14.692 0.26201 3.878-0.584 7.112-2.165 10.569-1.082 2.367-2.345 4.791-2.725 7.391-0.539 3.69-0.875 7.885 0.209 11.506 0.957 3.202 2.012 6.4 3.36 9.461 0.45601 1.037 1.013 2.447 2.011 3.092 1.173 0.755 3.438 0.56201 4.734 0.51999 1.785-0.056976 2.586-0.168 3.384-1.598 1.019-1.832 1.892-3.742 2.654-5.693 1.744-4.46 2.424-9.789 1.758-14.541-0.284-2.035-1.104-3.809-1.854-5.719-1.065-2.71-2.755-5.663-3.143-8.559-0.64398-4.812 0.927-9.235 1.05-13.993 0.089996-3.451-2.14-6.646-5.75-7.128-0.199-0.027008 0.638 1.517 1.205 1.593 3.785 0.504 3.241 3.803 2.936 6.699-0.22501 2.125-0.79199 4.187-0.98498 6.313-0.17801 1.947-0.37402 4.68 0.37799 6.566 1.389 3.502 2.768 7.004 4.141 10.512 1.804 4.598 0.78 11.055-0.73398 15.664-0.87201 2.653-2.121 5.217-3.528 7.625-0.518 0.88098-3.082 0.689-3.981 0.67999-1.065-0.013-2.163-0.16-3.196-0.422 0.37801 0.34 0.757 0.681 1.136 1.021-1.482-2.385-2.32-5.217-3.198-7.862-0.711-2.146-1.317-4.125-1.509-6.394-0.241-2.88 0.013-5.844 0.47301-8.691 0.34399-2.121 1.5-4.183 2.376-6.123 0.824-1.824 1.689-3.512 2.11-5.492 0.655-3.07 0.35001-6.354-0.14899-9.426-0.35901-2.211-0.93401-4.331-0.798-6.603 0.13199-2.217 2.471-3.893 4.531-4.068 0.319-0.027008-0.68201-1.638-1.208-1.592z"/>
 <path d="m31.631 56.857c-3.029-0.479-5.199-0.41998-6.696-0.19299l0.143 3.395c2.288-0.59598 4.627-0.457 6.506-0.12698-0.097015-0.88202-0.037994-2.097 0.046997-3.075z" fill="#f00"/>
 <path d="m31.766 61.329c-3.357-0.518-5.653-0.375-7.133-0.079987l-0.812 3.811c3.067-1.302 6.453-0.99298 8.821-0.47897l-0.876-3.252z" fill="#f00"/>
 <polygon points="27.167 66.255 26.802 60.405 27.235 55.154 26.292 54.618 26.161 60.403 26.023 66.726" fill="#fff"/>
 <path d="m40.202 31.454s-4.688 0.323-5.579 4.933c0 0-0.24197 2.667 0.48401 5.741 0 0 2.587 10.188-0.323 16.816 0 0-4.043 8.49-4.366 10.432 0 0-1.535 8.326-0.083008 14.474 0 0 3.074 10.511 5.339 13.987 0 0 4.608 1.213 8.571-0.079987 0 0 4.769-7.762 5.742-14.797 0 0 1.213-7.438-0.080994-12.775 0 0-2.75-7.035-5.418-13.746 0 0-0.89002-4.043-0.16101-9.38 0 0 1.939-8.166 0.88699-12.047-9.77e-4 -0.001007-1.616-3.316-5.012-3.558z" fill="#fff"/>
 <path d="m39.599 30.657c-2.643 0.22-4.755 1.993-5.564 4.481-0.86499 2.664 0.328 5.869 0.80899 8.542 0.79401 4.427 1.006 9.196-0.371 13.525-0.854 2.669-2.359 5.193-3.442 7.776-1.038 2.488-1.538 4.643-1.807 7.318-0.384 3.805-0.51001 7.93 0.60599 11.631 1.003 3.322 2.11 6.625 3.418 9.844 0.55102 1.359 1.141 2.859 2.033 4.043 0.72 0.94699 1.659 0.983 2.777 1.146 2.012 0.29901 4.239 0.32999 6.206-0.241 1-0.29102 1.191-1.082 1.687-1.991 2.014-3.711 3.677-7.687 4.544-11.83 0.664-3.18 0.80899-6.542 0.68701-9.775-0.13-3.445-1.264-6.135-2.509-9.296-1.452-3.694-3.477-7.397-3.821-11.385-0.30298-3.487 0.284-6.691 0.854-10.082 0.43402-2.602 1.372-6.794-0.016998-9.243-1.293-2.272-3.444-4.136-6.09-4.463-0.20401-0.024994 0.64002 1.522 1.203 1.593 7.117 0.87701 3.08 11.08 2.633 15.676-0.232 2.389-0.508 5.784 0.414 8.103 1.679 4.225 3.346 8.455 5.005 12.689 1.179 3.012 1.023 6.512 0.82498 9.691-0.185 3.017-0.69098 5.95-1.616 8.832-1.055 3.285-2.582 6.457-4.317 9.434-0.64401 1.1-3.557 0.88498-4.712 0.87698-1.317-0.011993-2.682-0.18799-3.961-0.51199 0.375 0.34 0.75601 0.67999 1.134 1.021-1.838-2.937-2.865-6.452-3.942-9.72-0.90601-2.745-1.612-5.252-1.793-8.175-0.19699-3.318 0.087006-6.721 0.64603-9.995 0.435-2.53 1.859-5.028 2.908-7.341 1.058-2.337 2.109-4.462 2.56-7.025 0.63199-3.609 0.27301-7.4-0.341-10.985-0.44199-2.58-1.116-5.086-0.90399-7.739 0.211-2.637 2.998-4.627 5.463-4.832 0.32202-0.026001-0.676-1.636-1.205-1.592z"/>
 <path d="m44.11 48.861c-3.64-0.577-6.248-0.504-8.049-0.233l0.173 4.083c2.75-0.71902 5.564-0.55402 7.821-0.15601-0.11899-1.059-0.048004-2.518 0.054993-3.694z" fill="#f00"/>
 <path d="m44.272 54.236c-4.031-0.62-6.793-0.45099-8.572-0.097015l-0.976 4.583c3.688-1.565 7.758-1.197 10.603-0.577l-1.055-3.909z" fill="#f00"/>
 <polygon points="38.744 60.157 38.309 53.128 38.827 46.817 37.694 46.169 37.541 53.124 37.369 60.724" fill="#fff"/>
 <path d="m102.95 43.309s-3.9 0.26901-4.642 4.105c0 0-0.20401 2.219 0.401 4.774 0 0 2.152 8.477-0.26901 13.992 0 0-3.362 7.064-3.632 8.681 0 0-1.279 6.929-0.069 12.039 0 0 2.559 8.747 4.441 11.64 0 0 3.835 1.011 7.131-0.065979 0 0 3.971-6.46 4.777-12.312 0 0 1.009-6.188-0.069-10.628 0 0-2.287-5.854-4.506-11.438 0 0-0.741-3.363-0.134-7.802 0 0 1.613-6.796 0.73801-10.025 0.002014 0.001007-1.344-2.759-4.167-2.96z" fill="#fff"/>
 <path d="m102.34 42.513c-7.535 0.64499-3.836 10.089-3.526 14.692 0.267 3.878-0.582 7.11-2.162 10.569-1.085 2.369-2.345 4.791-2.726 7.392-0.539 3.689-0.87399 7.884 0.207 11.506 0.95801 3.201 2.015 6.396 3.361 9.462 0.45801 1.035 1.014 2.445 2.01 3.088 1.176 0.75803 3.439 0.56403 4.735 0.522 1.783-0.057983 2.586-0.16898 3.383-1.599 1.021-1.832 1.893-3.742 2.656-5.691 1.744-4.461 2.424-9.788 1.759-14.541-0.28598-2.037-1.106-3.811-1.856-5.719-1.063-2.709-2.753-5.665-3.141-8.559-0.646-4.814 0.92401-9.235 1.05-13.994 0.087006-3.45-2.141-6.645-5.75-7.128-0.20001-0.027008 0.63699 1.517 1.204 1.593 3.785 0.50601 3.24 3.801 2.934 6.696-0.22299 2.128-0.79102 4.19-0.983 6.315-0.17801 1.948-0.375 4.682 0.37601 6.569 1.39 3.498 2.77 7.003 4.145 10.511 1.799 4.599 0.77701 11.054-0.737 15.663-0.871 2.653-2.119 5.219-3.528 7.627-0.51602 0.88101-3.08 0.689-3.981 0.67801-1.062-0.011017-2.163-0.16101-3.196-0.422 0.37997 0.34198 0.758 0.68198 1.136 1.021-1.481-2.383-2.319-5.217-3.198-7.861-0.711-2.145-1.314-4.125-1.506-6.396-0.24298-2.878 0.011017-5.843 0.47101-8.69 0.345-2.12 1.5-4.184 2.376-6.121 0.824-1.826 1.691-3.513 2.11-5.491 0.655-3.071 0.34802-6.356-0.14999-9.429-0.358-2.211-0.93298-4.332-0.797-6.603 0.133-2.217 2.471-3.893 4.531-4.067 0.319-0.028992-0.68201-1.639-1.207-1.593z"/>
 <path d="m106.2 57.79c-3.027-0.479-5.196-0.418-6.692-0.19101l0.142 3.395c2.287-0.59601 4.627-0.45801 6.504-0.12701-0.095001-0.88098-0.037018-2.096 0.04599-3.077z" fill="#f00"/>
 <path d="m106.33 62.265c-3.358-0.518-5.653-0.375-7.133-0.079987l-0.812 3.812c3.065-1.301 6.453-0.995 8.82-0.47998l-0.875-3.252z" fill="#f00"/>
 <polygon points="101.74 67.191 101.37 61.341 101.8 56.091 100.86 55.554 100.73 61.339 100.59 67.661" fill="#fff"/>
 <path d="m53.632 20.42s-5.418 0.375-6.446 5.701c0 0-0.28003 3.083 0.56 6.633 0 0 2.991 11.773-0.37302 19.435 0 0-4.674 9.811-5.046 12.055 0 0-1.776 9.624-0.093994 16.725 0 0 3.55 12.147 6.168 16.165 0 0 5.324 1.401 9.904-0.093018 0 0 5.511-8.971 6.633-17.098 0 0 1.402-8.598-0.093994-14.765 0 0-3.177-8.13-6.261-15.885 0 0-1.025-4.671-0.18597-10.84 0 0 2.242-9.436 1.027-13.922 0.001007 0-1.866-3.831-5.792-4.111z" fill="#fff"/>
 <path d="m53.031 19.623c-2.43 0.19699-4.654 1.627-5.851 3.731-1.516 2.675-0.68002 6.451-0.037018 9.245 0.828 3.603 1.188 7.337 1.087 11.029-0.097992 3.605-1.074 6.749-2.562 9.969-1.373 2.965-2.804 5.961-3.829 9.07-0.85202 2.588-0.879 5.612-1.006 8.297-0.34299 7.417 1.849 14.059 4.588 20.86 0.77698 1.934 1.762 5.718 4.118 6.228 1.985 0.42999 4.028 0.539 6.052 0.41598 1.528-0.089996 3.092-0.107 3.873-1.465 3.93-6.836 6.332-14.119 6.735-21.992 0.189-3.744 0.039001-7.498-1.335-11.002-0.83099-2.123-1.664-4.242-2.5-6.361-0.47299-1.199-0.94699-2.399-1.422-3.598-0.53702-1.365-1.386-2.854-1.68-4.291-0.716-3.515-0.806-7.623-0.03302-11.12 0.78-3.534 1.354-7.198 1.259-10.826-0.107-4.085-3.317-7.7-7.457-8.19-0.20898-0.02301 0.638 1.525 1.205 1.593 8.203 0.97098 3.999 12.108 3.345 17.339-0.31601 2.534-0.29602 5.115-0.060028 7.655 0.078003 0.84601 0.10702 1.87 0.42602 2.672 1.939 4.876 3.862 9.759 5.776 14.648 1.426 3.635 1.212 7.867 0.94199 11.703-0.246 3.516-0.88199 6.92-2.007 10.267-1.226 3.647-2.925 7.178-4.874 10.494-0.73498 1.249-4.599 0.95902-5.904 0.91299-1.362-0.046997-2.76-0.232-4.084-0.57098 0.379 0.34 0.759 0.67899 1.136 1.021-2.094-3.328-3.269-7.322-4.496-11.029-0.99899-3.015-1.861-5.812-2.113-9.004-0.31799-3.995 0.019012-8.098 0.66202-12.045 0.44998-2.748 1.924-5.426 3.052-7.939 1.141-2.546 2.45-4.966 3.082-7.701 0.97501-4.216 0.625-8.738-0.020996-12.978-0.48401-3.171-1.341-6.19-1.221-9.446 0.12399-3.218 3.104-5.487 6.055-5.961 0.10101-0.016998 0.202-0.028015 0.30499-0.037018 0.31601-0.026978-0.67999-1.635-1.206-1.594z"/>
 <path d="m58.15 40.536c-4.207-0.66602-7.221-0.58301-9.301-0.26901l0.199 4.716c3.177-0.827 6.428-0.63699 9.038-0.17798-0.134-1.222-0.053009-2.91 0.063995-4.269z" fill="#f00"/>
 <path d="m58.338 46.749c-4.661-0.72-7.854-0.522-9.907-0.11099l-1.127 5.295c4.259-1.808 8.964-1.382 12.253-0.66699l-1.219-4.517z" fill="#f00"/>
 <polygon points="51.951 53.591 51.444 45.466 52.045 38.173 50.737 37.425 50.556 45.463 50.362 54.245" fill="#fff"/>
 <path d="m91.682 31.454s-4.69 0.323-5.58 4.933c0 0-0.241 2.667 0.48599 5.741 0 0 2.588 10.188-0.32501 16.816 0 0-4.043 8.49-4.366 10.432 0 0-1.537 8.326-0.083008 14.474 0 0 3.076 10.511 5.339 13.987 0 0 4.61 1.213 8.573-0.079987 0 0 4.769-7.762 5.738-14.797 0 0 1.216-7.438-0.081024-12.775 0 0-2.75-7.035-5.417-13.746 0 0-0.88998-4.043-0.16098-9.38 0 0 1.94-8.166 0.88898-12.047 0-0.001007-1.617-3.316-5.012-3.558z" fill="#fff"/>
 <path d="m91.08 30.657c-2.645 0.22-4.755 1.993-5.565 4.481-0.86499 2.664 0.328 5.869 0.80701 8.542 0.798 4.427 1.01 9.196-0.37 13.525-0.85101 2.669-2.36 5.193-3.439 7.776-1.041 2.488-1.541 4.643-1.809 7.318-0.38199 3.805-0.50998 7.93 0.60501 11.631 1.004 3.322 2.11 6.623 3.419 9.844 0.552 1.359 1.14 2.859 2.035 4.043 0.71799 0.94699 1.658 0.983 2.775 1.146 2.011 0.29901 4.236 0.32999 6.204-0.241 1.002-0.29102 1.192-1.082 1.686-1.991 2.016-3.711 3.68-7.687 4.546-11.83 0.66598-3.18 0.80899-6.542 0.686-9.775-0.12903-3.445-1.265-6.135-2.508-9.296-1.451-3.694-3.477-7.397-3.822-11.385-0.29999-3.487 0.28601-6.691 0.854-10.082 0.435-2.602 1.375-6.794-0.016998-9.243-1.292-2.272-3.441-4.136-6.087-4.463-0.20599-0.024994 0.63602 1.522 1.204 1.593 7.116 0.87701 3.079 11.08 2.631 15.676-0.23398 2.389-0.509 5.784 0.41101 8.103 1.68 4.225 3.349 8.455 5.006 12.689 1.18 3.012 1.021 6.512 0.827 9.691-0.18301 3.017-0.69 5.95-1.617 8.832-1.055 3.285-2.582 6.457-4.318 9.434-0.64102 1.1-3.554 0.88498-4.708 0.87698-1.32-0.011993-2.683-0.18799-3.964-0.51199 0.37698 0.34 0.75497 0.67999 1.135 1.021-1.838-2.937-2.866-6.452-3.943-9.72-0.90601-2.745-1.613-5.252-1.792-8.175-0.199-3.318 0.085999-6.721 0.646-9.995 0.431-2.53 1.858-5.028 2.907-7.341 1.058-2.337 2.11-4.462 2.56-7.025 0.63199-3.609 0.27197-7.4-0.34003-10.985-0.44199-2.58-1.117-5.086-0.90399-7.739 0.21201-2.637 2.995-4.627 5.464-4.832 0.31699-0.026001-0.67902-1.636-1.205-1.592z"/>
 <path d="m95.592 48.861c-3.64-0.577-6.25-0.504-8.05-0.233l0.172 4.083c2.749-0.71902 5.563-0.55402 7.819-0.15601-0.116-1.059-0.042999-2.518 0.05899-3.694z" fill="#f00"/>
 <path d="m95.754 54.236c-4.034-0.62-6.797-0.45099-8.572-0.097015l-0.978 4.583c3.688-1.565 7.756-1.197 10.604-0.577l-1.054-3.909z" fill="#f00"/>
 <polygon points="90.227 60.157 89.788 53.128 90.306 46.817 89.176 46.169 89.019 53.124 88.852 60.724" fill="#fff"/>
 <path d="m79.455 20.759s-5.416 0.375-6.447 5.702c0 0-0.28 3.082 0.56198 6.634 0 0 2.991 11.772-0.37299 19.435 0 0-4.674 9.81-5.045 12.052 0 0-1.776 9.625-0.095001 16.727 0 0 3.549 12.147 6.167 16.165 0 0 5.326 1.401 9.903-0.092987 0 0 5.514-8.971 6.637-17.1 0 0 1.399-8.596-0.097992-14.764 0 0-3.174-8.13-6.258-15.883 0 0-1.028-4.672-0.18701-10.84 0 0 2.241-9.438 1.027-13.923 0.001007-0.001007-1.868-3.832-5.793-4.112z" fill="#fff"/>
 <path d="m78.854 19.963c-2.429 0.19598-4.653 1.627-5.85 3.73-1.516 2.675-0.67999 6.452-0.037994 9.245 0.828 3.603 1.191 7.337 1.089 11.029-0.10199 3.605-1.073 6.749-2.563 9.967-1.372 2.967-2.803 5.963-3.827 9.072-0.85202 2.587-0.88202 5.612-1.007 8.295-0.34299 7.418 1.85 14.061 4.587 20.863 0.77802 1.932 1.764 5.717 4.119 6.227 1.987 0.42899 4.028 0.539 6.051 0.418 1.528-0.094025 3.094-0.108 3.874-1.468 3.928-6.837 6.335-14.118 6.735-21.993 0.18903-3.744 0.039001-7.495-1.337-11.002-0.82901-2.119-1.661-4.24-2.498-6.359-0.47299-1.199-0.94699-2.4-1.423-3.598-0.53699-1.365-1.387-2.855-1.678-4.291-0.71701-3.515-0.80701-7.623-0.03302-11.119 0.78-3.536 1.354-7.198 1.258-10.828-0.10898-4.083-3.318-7.698-7.459-8.188-0.207-0.02301 0.638 1.525 1.205 1.592 8.205 0.97098 3.999 12.11 3.347 17.34-0.31702 2.534-0.29602 5.115-0.061005 7.656 0.078003 0.84402 0.10599 1.869 0.426 2.67 1.938 4.879 3.861 9.76 5.774 14.646 1.425 3.637 1.214 7.869 0.944 11.705-0.246 3.515-0.88101 6.917-2.006 10.267-1.226 3.646-2.926 7.177-4.875 10.494-0.73401 1.249-4.6 0.957-5.902 0.91202-1.363-0.046021-2.763-0.233-4.085-0.57101 0.37698 0.34 0.75699 0.681 1.135 1.021-2.093-3.33-3.269-7.321-4.498-11.029-0.99701-3.014-1.859-5.812-2.11-9.004-0.31802-3.996 0.016998-8.099 0.66-12.046 0.45099-2.747 1.925-5.427 3.053-7.938 1.141-2.545 2.45-4.967 3.082-7.702 0.978-4.217 0.625-8.739-0.020996-12.977-0.48599-3.173-1.343-6.19-1.222-9.448 0.12299-3.219 3.101-5.486 6.055-5.961 0.098999-0.016998 0.203-0.027008 0.30399-0.037018 0.31702-0.023987-0.67798-1.632-1.205-1.59z"/>
 <path d="m83.974 40.874c-4.207-0.66501-7.22-0.58002-9.301-0.267l0.199 4.714c3.176-0.82599 6.426-0.63501 9.035-0.176-0.13303-1.223-0.050018-2.91 0.066986-4.271z" fill="#f00"/>
 <path d="m84.163 47.088c-4.662-0.71899-7.854-0.521-9.907-0.11002l-1.129 5.293c4.26-1.807 8.964-1.381 12.253-0.66598l-1.217-4.517z" fill="#f00"/>
 <polygon points="77.775 53.929 77.271 45.807 77.869 38.512 76.561 37.764 76.382 45.802 76.185 54.585" fill="#fff"/>
 <path d="m65.204 12.317s-6.031 0.41501-7.175 6.346c0 0-0.31201 3.432 0.62198 7.383 0 0 3.329 13.104-0.414 21.632 0 0-5.201 10.919-5.617 13.415 0 0-1.976 10.712-0.10397 18.617 0 0 3.953 13.519 6.864 17.992 0 0 5.928 1.559 11.023-0.104 0 0 6.138-9.983 7.385-19.032 0 0 1.561-9.566-0.104-16.432 0 0-3.538-9.049-6.97-17.681 0 0-1.143-5.199-0.20602-12.063 0 0 2.495-10.505 1.145-15.496 0.001007 0-2.08-4.265-6.449-4.577z" fill="#fff"/>
 <path d="m64.603 11.52c-2.27 0.18201-4.445 1.382-5.861 3.137-2.331 2.894-1.609 7.541-0.785 10.834 1.66 6.615 2.528 15.227-0.47101 21.559-2.169 4.571-5.009 9.478-5.773 14.527-1.085 7.161-1 14.202 1.198 21.109 1.154 3.637 2.4 7.253 3.893 10.766 0.931 2.196 1.734 4.792 4.271 5.279 2.16 0.41699 4.372 0.51099 6.562 0.34201 1.464-0.11401 3.129-0.12802 3.895-1.448 1.99-3.441 3.669-7.073 5.03-10.807 1.265-3.478 1.97-7.054 2.33-10.723 0.21399-2.183 0.298-4.377 0.271-6.567-0.027008-2.11-0.002991-4.843-0.78598-6.843-1.377-3.528-2.764-7.053-4.152-10.574-0.90302-2.289-2.334-4.779-2.826-7.177-0.32797-1.599-0.439-3.243-0.51099-4.869-0.276-6.269 1.776-12.208 1.884-18.452 0.040985-2.255-0.176-4.084-1.489-5.902-1.609-2.219-3.924-3.881-6.68-4.191-0.20999-0.022003 0.63901 1.53 1.204 1.593 2.184 0.246 3.979 1.328 5.125 3.212 0.793 1.308 0.42499 3.955 0.35199 5.423-0.16101 3.283-0.73001 6.575-1.453 9.777-0.84299 3.727-0.54199 8.054 0.080017 11.807 0.28799 1.725 1.236 3.401 1.878 5.019 1.144 2.891 2.283 5.786 3.421 8.683 1.412 3.601 2.344 6.524 2.501 10.489 0.13699 3.432-0.104 6.934-0.63699 10.326-0.79901 5.103-2.663 9.916-4.938 14.529-0.64697 1.32-1.35 2.617-2.087 3.893-0.87601 1.516-4.011 1.275-5.581 1.298-1.89 0.026001-3.857-0.19202-5.69-0.66302 0.38 0.34003 0.75803 0.68002 1.137 1.021-3.287-5.207-4.977-11.771-6.694-17.646-1.388-4.732-0.896-10.301-0.35602-15.137 0.259-2.322 0.672-4.326 1.529-6.504 1.259-3.2 2.716-6.326 4.176-9.439 1.543-3.289 2.084-6.804 2.162-10.419 0.078003-3.678-0.37698-7.395-1.113-10.994-0.62698-3.062-1.497-6.431-0.59-9.512 0.84802-2.881 3.856-4.929 6.78-5.164 0.31601-0.024017-0.677-1.632-1.206-1.592z"/>
 <path d="m70.232 34.705c-4.682-0.73999-8.036-0.646-10.353-0.297l0.226 5.25c3.533-0.922 7.152-0.70999 10.055-0.198-0.151-1.362-0.057007-3.241 0.071991-4.755z" fill="#f00"/>
 <path d="m70.442 41.622c-5.188-0.801-8.738-0.57999-11.025-0.125l-1.256 5.895c4.743-2.013 9.977-1.538 13.641-0.742l-1.36-5.028z" fill="#f00"/>
 <polygon points="63.332 49.236 62.77 40.194 63.436 32.078 61.981 31.244 61.783 40.191 61.564 49.965" fill="#fff"/>
</svg>
