<?xml version="1.0"?><svg width="640" height="480" xmlns="http://www.w3.org/2000/svg">
 <title>Transparent Bowling Pins</title>
 <metadata id="metadata5216">image/svg+xml</metadata>
 <g>
  <title>Layer 1</title>
  <g opacity="0.25" id="g5196">
   <path d="m19.299955,253.508636c0,0 -13.152766,13.914215 -3.248875,29.603516c0,0 6.544224,8.328308 17.095762,15.134583c0,0 35.499184,22.062073 44.858749,49.14621c0,0 11.031471,35.556763 15.356346,42.021606c0,0 18.088593,28.146088 39.187134,41.749725c0,0 37.842728,21.647278 54.093124,25.355316c0,0 17.090805,-9.284149 25.416519,-23.968353c0,0 -6.876678,-35.486328 -23.141907,-58.358307c0,0 -16.636475,-24.701691 -35.053421,-36.435608c0,0 -27.392838,-12.562714 -53.667,-24.424805c0,0 -13.669754,-9.13678 -26.036171,-26.467407c0,0 -16.447395,-28.807068 -30.167515,-37.036377c0,0 -13.877537,-5.035095 -24.692747,3.679901z" id="path5198" fill="#3f3f3f"/>
  </g>
  <g opacity="0.25" id="g5200">
   <path d="m61.200493,219.861374c0,0 -1.842186,13.079239 10.286598,17.799789c0,0 7.176941,1.979965 16.030144,1.49678c0,0 29.447723,-2.111176 45.941689,9.177032c0,0 20.935303,15.326035 26.070648,17.16832c0,0 21.945175,8.341614 39.646423,7.358978c0,0 30.619553,-3.294464 41.472473,-7.817047c0,0 6.004318,-12.101807 4.754227,-23.655823c0,0 -18.518753,-16.97319 -37.252258,-23.117722c0,0 -19.694153,-7.008499 -35.088135,-6.075424c0,0 -20.889206,4.116821 -40.849564,8.167587c0,0 -11.603813,0.454575 -25.814171,-4.182495c0,0 -21.277275,-9.372665 -32.532654,-8.388947c0,0 -10.031357,2.824936 -12.665421,12.06897z" id="path5202" fill="#bfbfbf"/>
  </g>
  <g opacity="0.25" id="g5204">
   <path d="m600.638062,17.04545c0,0 -20.136475,-10.376024 -35.41626,6.221861c0,0 -7.719666,10.28368 -12.467285,24.634087c0,0 -14.996582,48.030869 -43.694458,67.830025c0,0 -38.051483,24.560387 -44.271057,31.673012c0,0 -27.309631,30.157516 -36.794861,58.868469c0,0 -13.810181,50.558731 -13.24295,70.400009c0,0 15.938568,16.439758 35.527924,21.043976c0,0 39.217346,-19.771606 60.939148,-46.067535c0,0 23.736145,-27.327209 31.85199,-52.335983c0,0 6.383179,-35.572632 12.292542,-69.611542c0,0 6.520264,-18.716164 22.961182,-38.679626c0,0 28.570923,-28.490417 34.019043,-46.950573c-0.000366,0.002823 1.683838,-17.569006 -11.704956,-27.026178z" id="path5206" fill="#bfbfbf"/>
  </g>
  <g opacity="0.25" transform="rotate(2.31225, 167.705, 76.8984)" id="g5208">
   <path d="m22.632885,-46.779037c0,0 -14.774904,21.896633 1.790756,42.32283c0,0 10.523552,10.618393 26.108681,18.40107c0,0 52.288654,25.002548 70.497776,61.598991c0,0 22.214119,48.259659 29.36338,56.632935c0,0 30.162064,36.586853 61.341446,52.142578c0,0 55.336182,24.015106 77.94162,26.449127c0,0 21.033356,-16.043518 29.167694,-38.19603c0,0 -16.609375,-48.874115 -43.219849,-78.335907c0,0 -27.487396,-31.977028 -54.671036,-45.352196c0,0 -39.421936,-13.009384 -77.186661,-25.215317c0,0 -20.273712,-10.537117 -40.480705,-32.852211c0,0 -28.090492,-37.799084 -48.235386,-47.03548c0,-0.002407 -19.689079,-4.710247 -32.417717,9.43961z" id="path5210" fill="#7f7f7f"/>
  </g>
  <g opacity="0.25" transform="rotate(-4.04599, 340.293, 340.518)" id="g5220" fill="#fdca01">
   <path id="path5222" d="m336.385254,218.313736c0,0 -22.549072,1.541702 -26.382996,18.450302c0,0 -0.913422,9.766724 2.884399,20.938934c0,0 13.43924,37.012878 0.06366,61.459015c0,0 -18.651611,31.321869 -20.019012,38.440002c0,0 -6.599213,30.532684 0.99649,52.870575c0,0 15.81427,38.163269 27.050079,50.693329c0,0 22.302765,4.071411 41.250549,-0.960114c0,0 22.22525,-28.725037 26.219604,-54.498718c0,0 5.126587,-27.263458 -1.616547,-46.665131c0,0 -13.918152,-25.479614 -27.418213,-49.789429c0,0 -4.664307,-14.694519 -1.671967,-34.249664c0,0 8.556244,-29.98349 3.125214,-44.083313c0,0 -8.107819,-11.989548 -24.481262,-12.605789l0,0z" fill="#7f7f7f"/>
  </g>
  <g opacity="0.25" id="g5224" fill="#816647">
   <path d="m587.537842,313.020142c0,0 -15.157227,-8.362427 -26.75647,3.865051c0,0 -5.873596,7.618286 -9.516602,18.40033c0,0 -11.52478,36.086273 -33.26947,50.420685c0,0 -28.822205,17.719757 -33.548615,22.972534c0,0 -20.739655,22.218018 -28.022217,43.776794c0,0 -10.639771,38.043488 -10.294678,53.114288c0,0 11.958527,12.859802 26.719879,16.823303c0,0 29.684509,-14.06488 46.190369,-33.492767c0,0 18.032471,-20.166107 24.265137,-38.953369c0,0 4.969727,-26.833954 9.570923,-52.530273c0,0 5.001831,-14.0401 17.500977,-28.796906c0,0 21.684937,-20.93222 25.87738,-34.812042c0,0 1.348694,-13.292175 -8.716614,-20.787628l0,0z" id="path5226" fill="#7f7f7f"/>
  </g>
 </g>
</svg>