<?xml version="1.0" encoding="iso-8859-1"?>
<!-- Generator: Adobe Illustrator 19.0.0, SVG Export Plug-In . SVG Version: 6.00 Build 0)  -->
<svg version="1.1" id="Layer_1" xmlns="http://www.w3.org/2000/svg" xmlns:xlink="http://www.w3.org/1999/xlink" x="0px" y="0px"
	 viewBox="0 0 504.123 504.123" style="enable-background:new 0 0 504.123 504.123;" xml:space="preserve">
<path style="fill:#324D5B;" d="M236.308,129.969c102.4,0,185.108,83.889,185.108,187.077s-82.708,187.077-185.108,187.077
	S51.2,420.234,51.2,317.046S133.908,129.969,236.308,129.969z"/>
<path style="fill:#2D4552;" d="M275.692,464.738c-102.4,0-185.108-83.889-185.108-187.077c0-41.748,13.785-80.345,36.628-111.852
	C81.132,200.074,51.2,254.818,51.2,317.046c0,103.188,82.708,187.077,185.108,187.077c60.652,0,114.609-29.538,148.48-75.225
	C354.068,451.348,316.652,464.738,275.692,464.738z"/>
<path style="fill:#2F4856;" d="M421.415,317.046c0-20.48-3.151-39.778-9.059-58.289c-4.726-12.209-10.634-24.812-17.723-37.809
	c-1.182-2.363-2.363-4.726-3.545-6.695c-18.117-27.569-43.323-50.018-72.862-64.985c-0.788,24.812-7.089,49.231-19.692,71.286
	c-22.843,41.748-35.052,89.009-35.052,136.665s12.209,94.523,34.658,136.271C369.822,467.889,421.415,398.572,421.415,317.046z"/>
<path style="fill:#2B414D;" d="M216.615,194.954c0-9.846-7.877-17.723-17.723-17.723c-9.846,0-17.723,7.877-17.723,17.723
	s7.877,17.723,17.723,17.723C208.738,212.677,216.615,204.8,216.615,194.954z M265.846,185.108c-9.846,0-17.723,7.877-17.723,17.723
	s7.877,17.723,17.723,17.723s17.723-7.877,17.723-17.723S275.692,185.108,265.846,185.108z M226.462,232.369
	c-9.846,0-17.723,7.877-17.723,17.723s7.877,17.723,17.723,17.723s17.723-7.877,17.723-17.723
	C244.185,240.246,236.308,232.369,226.462,232.369z"/>
<path style="fill:#EDEDED;" d="M452.923,357.218c0-52.775-11.028-90.191-35.446-136.271
	c-18.117-33.477-24.025-70.498-16.935-107.126l11.815-61.44c1.575-9.058,0.394,0,0.394-8.271c0-24.418-19.299-44.11-42.929-44.11
	s-42.929,19.692-42.929,44.111c0,8.271-1.182-0.394,0.788,8.271l11.815,61.046c6.302,36.628,1.182,74.043-16.935,107.126
	c-22.843,41.748-35.052,89.009-35.052,136.665s12.209,94.917,35.052,136.665h0.394c4.332,5.514,24.025,9.846,47.262,9.846
	c25.6,0,46.08-5.12,48.049-11.422C442.289,447.015,452.923,409.6,452.923,357.218L452.923,357.218z"/>
<path style="fill:#DCDCDC;" d="M350.129,494.277c-23.237-41.748-35.446-89.009-35.446-136.665s12.209-94.917,35.052-136.665
	c18.117-32.689,23.237-70.498,16.935-107.126l-11.815-61.046c-1.969-9.058-0.788,0-0.788-8.271c0-19.298,12.209-35.84,29.145-41.748
	C379.274,0.788,374.548,0,369.822,0c-23.631,0-42.929,19.692-42.929,44.111c0,8.271-1.182-0.394,0.788,8.271l11.815,61.046
	c6.302,36.628,1.182,74.043-16.935,107.126c-22.843,41.748-35.052,89.009-35.052,136.665s12.209,94.917,35.052,136.665h0.394
	c4.332,5.514,24.025,9.846,47.262,9.846c4.726,0,9.452,0,13.785-0.394C367.065,502.154,353.674,498.609,350.129,494.277z"/>
<path style="fill:#E2574C;" d="M403.298,185.108c-2.757-10.24-4.332-20.874-5.12-31.508h-56.714
	c-0.788,10.634-2.363,21.268-5.12,31.508C336.345,185.108,403.298,185.108,403.298,185.108z M400.542,114.215l1.575-7.877H337.92
	l1.575,7.089c1.575,8.271,2.363,16.148,2.363,24.418h55.926C398.178,129.969,398.966,122.092,400.542,114.215z"/>
<path style="fill:#D25147;" d="M339.495,113.428c1.575,8.271,2.363,16.148,2.363,24.418h27.569
	c-0.394-8.271-1.182-16.148-2.363-24.418l-1.575-7.089H337.92L339.495,113.428z M341.465,153.6
	c-0.788,10.634-2.363,21.268-5.12,31.508h27.569c2.757-10.24,4.332-20.874,5.12-31.508H341.465z"/>
<g>
</g>
<g>
</g>
<g>
</g>
<g>
</g>
<g>
</g>
<g>
</g>
<g>
</g>
<g>
</g>
<g>
</g>
<g>
</g>
<g>
</g>
<g>
</g>
<g>
</g>
<g>
</g>
<g>
</g>
</svg>
